<svg width="1090" height="346" viewBox="0 0 1090 346" fill="none" xmlns="http://www.w3.org/2000/svg">
<path d="M480.1 174.815C470.963 174.815 466.395 170.679 466.395 162.407V54.063C466.395 49.7416 467.445 46.5931 469.544 44.6176C471.643 42.6422 474.976 41.6544 479.545 41.6544C488.558 41.6544 493.064 45.7906 493.064 54.063V162.407C493.064 166.604 492.015 169.753 489.916 171.852C487.94 173.827 484.668 174.815 480.1 174.815ZM545.131 162.407C545.131 170.679 540.809 174.815 532.167 174.815C527.969 174.815 524.635 173.766 522.166 171.667C519.696 169.568 518.462 166.481 518.462 162.407V85.9178C518.462 71.3486 521.548 60.3599 527.722 52.9518C534.019 45.4202 543.279 41.6544 555.502 41.6544C564.515 41.6544 571.985 43.5064 577.912 47.2105C583.838 50.9145 587.789 56.2237 589.765 63.1379C591.74 56.2237 595.691 50.9145 601.618 47.2105C607.544 43.5064 615.137 41.6544 624.398 41.6544C636.991 41.6544 646.313 45.2967 652.363 52.5814C658.413 59.7425 661.438 70.8547 661.438 85.9178V160.555C661.438 165.617 660.45 169.259 658.475 171.481C656.499 173.704 653.166 174.815 648.474 174.815C643.782 174.815 640.325 173.704 638.103 171.481C635.88 169.136 634.769 165.493 634.769 160.555V84.4362C634.769 72.2128 629.522 66.1012 619.027 66.1012C613.718 66.1012 609.767 67.8914 607.174 71.472C604.581 74.9292 603.285 80.4852 603.285 88.1403V158.702C603.285 163.765 602.297 167.407 600.321 169.629C598.346 171.852 595.012 172.963 590.32 172.963C585.629 172.963 582.171 171.852 579.949 169.629C577.727 167.284 576.615 163.641 576.615 158.702V88.1403C576.615 73.4475 571.368 66.1012 560.873 66.1012C550.378 66.1012 545.131 72.2128 545.131 84.4362V162.407ZM712.971 162.407C712.971 170.679 708.649 174.815 700.007 174.815C695.809 174.815 692.475 173.766 690.006 171.667C687.536 169.568 686.302 166.481 686.302 162.407V83.325C686.302 69.4965 689.944 59.1252 697.229 52.211C704.513 45.1733 716.737 41.6544 733.899 41.6544C746.616 41.6544 756.555 45.0498 763.716 51.8406C771.001 58.6313 774.643 69.5583 774.643 84.6214C774.643 97.7091 771.186 107.71 764.272 114.624C757.481 121.538 747.851 124.996 735.38 124.996C728.343 124.996 723.219 125.551 720.008 126.662C716.922 127.65 714.946 129.564 714.082 132.404C713.341 135.12 712.971 139.133 712.971 144.442V162.407ZM711.304 108.883C712.786 107.648 714.205 106.599 715.564 105.735C716.922 104.747 718.712 104.006 720.934 103.512C723.28 102.895 726.367 102.586 730.195 102.586C735.504 102.586 739.702 102.154 742.788 101.29C745.875 100.302 748.036 98.5116 749.27 95.9188C750.629 93.3259 751.308 89.5602 751.308 84.6214C751.308 78.0776 750.505 73.3241 748.9 70.3608C747.418 67.2741 745.258 65.2986 742.418 64.4343C739.702 63.4466 736.368 62.9527 732.417 62.9527C725.256 62.9527 720.194 64.2491 717.23 66.842C714.391 69.4348 712.971 73.9414 712.971 80.3618C712.971 84.9301 712.847 89.9306 712.6 95.3632C712.353 100.796 711.921 105.302 711.304 108.883ZM817.509 162.407C817.509 170.679 813.188 174.815 804.545 174.815C800.347 174.815 797.013 173.766 794.544 171.667C792.074 169.568 790.84 166.481 790.84 162.407V89.0663C790.84 72.0276 794.297 59.866 801.211 52.5814C808.125 45.2967 818.929 41.6544 833.622 41.6544C848.685 41.6544 859.797 45.3585 866.958 52.7666C874.119 60.1747 877.7 72.2746 877.7 89.0663V162.407C877.7 170.679 873.378 174.815 864.736 174.815C860.538 174.815 857.204 173.766 854.735 171.667C852.265 169.568 851.031 166.481 851.031 162.407V117.773C848.685 119.872 846.092 121.662 843.252 123.144C840.536 124.625 837.326 125.366 833.622 125.366C828.189 125.366 824.115 126.354 821.398 128.329C818.805 130.305 817.509 133.824 817.509 138.886V162.407ZM816.398 108.142C818.373 106.167 820.719 104.623 823.435 103.512C826.275 102.401 829.671 101.845 833.622 101.845C838.313 101.845 841.894 101.475 844.363 100.734C846.956 99.9932 848.746 98.5734 849.734 96.4744C850.722 94.3754 851.216 91.2887 851.216 87.2143C851.216 78.0776 849.919 71.8424 847.327 68.5088C844.734 65.0517 840.104 63.3231 833.436 63.3231C827.263 63.3231 823.003 65.1134 820.657 68.694C818.435 72.1511 817.324 78.5715 817.324 87.9551C817.324 92.7703 817.262 96.8448 817.139 100.178C817.015 103.512 816.768 106.167 816.398 108.142ZM926.693 109.068C926.693 123.761 928.483 134.317 932.064 140.738C935.645 147.035 940.954 150.183 947.992 150.183C952.436 150.183 956.326 149.874 959.659 149.257C962.993 148.516 966.018 148.146 968.734 148.146C973.673 148.146 977.254 149.195 979.476 151.294C981.698 153.27 982.81 155.863 982.81 159.073C982.81 163.271 981.266 166.481 978.18 168.703C975.216 170.926 971.389 172.469 966.697 173.333C962.129 174.198 957.437 174.63 952.622 174.63C939.287 174.63 928.669 172.161 920.767 167.222C912.988 162.283 907.37 154.998 903.913 145.368C900.58 135.614 898.913 123.514 898.913 109.068C898.913 94.6224 900.58 82.399 903.913 72.398C907.37 62.2736 912.988 54.6186 920.767 49.4329C928.669 44.2472 939.287 41.6544 952.622 41.6544C957.437 41.6544 962.129 42.0865 966.697 42.9508C971.389 43.8151 975.216 45.3585 978.18 47.5809C981.266 49.8033 982.81 53.0135 982.81 57.2114C982.81 60.2981 981.698 62.891 979.476 64.9899C977.254 67.0889 973.673 68.1384 968.734 68.1384C966.018 68.1384 962.993 67.8297 959.659 67.2124C956.326 66.4716 952.436 66.1012 947.992 66.1012C939.349 66.1012 933.607 69.62 930.768 76.6577C928.051 83.5719 926.693 94.3754 926.693 109.068ZM1038.45 174.815C1035.36 174.815 1032.22 174.136 1029.01 172.778C1025.92 171.296 1024.38 168.95 1024.38 165.74V79.0653C1024.38 75.1144 1025.36 72.398 1027.34 70.9164C1029.31 69.4348 1030.92 68.5088 1032.15 68.1384H996.41C993.447 68.1384 991.225 66.842 989.743 64.2491C988.385 61.5328 987.706 58.7548 987.706 55.915C987.706 52.8283 988.447 50.0503 989.928 47.5809C991.41 44.9881 993.571 43.6916 996.41 43.6916H1079.2C1082.04 43.6916 1084.2 44.9881 1085.68 47.5809C1087.16 50.0503 1087.9 52.8283 1087.9 55.915C1087.9 58.7548 1087.16 61.5328 1085.68 64.2491C1084.32 66.842 1082.16 68.1384 1079.2 68.1384H1051.05V165.74C1051.05 168.827 1049.75 171.111 1047.16 172.593C1044.69 174.074 1041.79 174.815 1038.45 174.815Z" fill="#0470F6"/>
<path d="M479.73 330.756C470.84 330.756 466.395 325.941 466.395 316.31V213.523C466.395 203.892 470.84 199.077 479.73 199.077C488.619 199.077 493.064 203.892 493.064 213.523V295.753C493.064 297.728 492.879 300.259 492.509 303.346C492.262 306.309 491.953 308.778 491.583 310.754C494.793 306.926 498.744 305.013 503.436 305.013H530.66C535.229 305.013 538.748 306.124 541.217 308.346C543.686 310.569 544.921 313.779 544.921 317.977C544.921 326.496 540.168 330.756 530.66 330.756H479.73ZM596.426 332.237C585.684 332.237 576.548 330.139 569.016 325.941C561.485 321.619 555.743 314.581 551.792 304.827C547.965 295.073 546.051 281.862 546.051 265.194C546.051 248.526 547.965 235.376 551.792 225.746C555.743 216.115 561.485 209.263 569.016 205.188C576.548 201.114 585.684 199.077 596.426 199.077C607.291 199.077 616.428 201.114 623.836 205.188C631.368 209.263 637.047 216.115 640.875 225.746C644.826 235.376 646.801 248.526 646.801 265.194C646.801 281.862 644.826 295.073 640.875 304.827C637.047 314.581 631.368 321.619 623.836 325.941C616.428 330.139 607.291 332.237 596.426 332.237ZM596.426 307.791C601.365 307.791 605.563 306.618 609.02 304.272C612.601 301.926 615.317 297.666 617.169 291.493C619.144 285.319 620.132 276.553 620.132 265.194C620.132 253.712 619.144 245.007 617.169 239.081C615.317 233.031 612.601 228.956 609.02 226.857C605.563 224.635 601.365 223.524 596.426 223.524C591.611 223.524 587.413 224.635 583.832 226.857C580.252 228.956 577.474 233.031 575.498 239.081C573.646 245.007 572.72 253.712 572.72 265.194C572.72 276.553 573.646 285.319 575.498 291.493C577.474 297.666 580.252 301.926 583.832 304.272C587.413 306.618 591.611 307.791 596.426 307.791ZM714.891 332.237C704.149 332.237 695.012 330.139 687.481 325.941C679.949 321.619 674.208 314.581 670.257 304.827C666.429 295.073 664.516 281.862 664.516 265.194C664.516 248.526 666.429 235.376 670.257 225.746C674.208 216.115 679.949 209.263 687.481 205.188C695.012 201.114 704.149 199.077 714.891 199.077C725.756 199.077 734.893 201.114 742.301 205.188C749.832 209.263 755.512 216.115 759.339 225.746C763.29 235.376 765.266 248.526 765.266 265.194C765.266 281.862 763.29 295.073 759.339 304.827C755.512 314.581 749.832 321.619 742.301 325.941C734.893 330.139 725.756 332.237 714.891 332.237ZM714.891 307.791C719.83 307.791 724.027 306.618 727.485 304.272C731.065 301.926 733.781 297.666 735.633 291.493C737.609 285.319 738.597 276.553 738.597 265.194C738.597 253.712 737.609 245.007 735.633 239.081C733.781 233.031 731.065 228.956 727.485 226.857C724.027 224.635 719.83 223.524 714.891 223.524C710.076 223.524 705.878 224.635 702.297 226.857C698.716 228.956 695.938 233.031 693.963 239.081C692.111 245.007 691.185 253.712 691.185 265.194C691.185 276.553 692.111 285.319 693.963 291.493C695.938 297.666 698.716 301.926 702.297 304.272C705.878 306.618 710.076 307.791 714.891 307.791ZM813.168 319.829C813.168 328.101 808.847 332.237 800.204 332.237C796.006 332.237 792.673 331.188 790.203 329.089C787.734 326.99 786.499 323.903 786.499 319.829V240.747C786.499 226.919 790.141 216.548 797.426 209.633C804.711 202.596 816.934 199.077 834.096 199.077C846.813 199.077 856.753 202.472 863.914 209.263C871.198 216.054 874.841 226.981 874.841 242.044C874.841 255.131 871.384 265.132 864.469 272.047C857.679 278.961 848.048 282.418 835.578 282.418C828.54 282.418 823.416 282.974 820.206 284.085C817.119 285.073 815.144 286.986 814.279 289.826C813.539 292.542 813.168 296.555 813.168 301.864V319.829ZM811.501 266.305C812.983 265.071 814.403 264.021 815.761 263.157C817.119 262.169 818.91 261.428 821.132 260.934C823.478 260.317 826.565 260.008 830.392 260.008C835.701 260.008 839.899 259.576 842.986 258.712C846.073 257.724 848.233 255.934 849.468 253.341C850.826 250.748 851.505 246.983 851.505 242.044C851.505 235.5 850.703 230.746 849.098 227.783C847.616 224.696 845.455 222.721 842.615 221.857C839.899 220.869 836.566 220.375 832.615 220.375C825.453 220.375 820.391 221.671 817.428 224.264C814.588 226.857 813.168 231.364 813.168 237.784C813.168 242.352 813.045 247.353 812.798 252.786C812.551 258.218 812.119 262.725 811.501 266.305Z" fill="#274396"/>
<path d="M38.4742 302.449C28.3554 293.095 74.8815 159.209 100.157 94.0657C52.9537 161.348 -30.8292 304.669 11.6633 339.693C54.1558 374.717 126.188 245.974 156.893 177.225C121.636 222.864 48.5931 311.803 38.4742 302.449Z" fill="#0470F6"/>
<path d="M334.74 19.7578C270.692 5.43495 188.953 118.998 156.089 177.57C234.123 73.5352 374.514 -24.9695 367.43 146.586C361.763 283.831 240.308 261.911 180.289 233.796C321.009 348.401 385.448 240.063 400.078 171.567C404.985 126.932 398.787 34.0807 334.74 19.7578Z" fill="#274396"/>
<circle cx="129.642" cy="46.3007" r="46.3007" fill="#0470F6"/>
</svg>
