<svg width="1088" height="391" viewBox="0 0 1088 391" fill="none" xmlns="http://www.w3.org/2000/svg">
<mask id="mask0_21_38" style="mask-type:alpha" maskUnits="userSpaceOnUse" x="0" y="0" width="391" height="391">
<rect width="390.695" height="390.695" rx="116.34" fill="url(#paint0_radial_21_38)"/>
</mask>
<g mask="url(#mask0_21_38)">
<rect width="390.695" height="390.695" rx="116.34" fill="url(#paint1_radial_21_38)"/>
<g filter="url(#filter0_f_21_38)">
<rect x="3.47284" y="3.47284" width="383.749" height="383.749" rx="112.867" stroke="url(#paint2_linear_21_38)" stroke-width="6.94569"/>
</g>
</g>
<path d="M105.922 332.815C129.639 332.815 152.385 323.424 169.155 306.707C185.926 289.991 195.348 267.318 195.348 243.678C195.348 220.038 185.926 197.366 169.155 180.649C152.385 163.933 129.639 154.542 105.922 154.542L105.922 332.815Z" fill="url(#paint3_linear_21_38)"/>
<path d="M201.425 237.942C225.142 237.942 247.887 228.551 264.658 211.835C281.429 195.118 290.851 172.446 290.851 148.806C290.851 125.165 281.429 102.493 264.658 85.7768C247.887 69.0605 225.142 59.6694 201.425 59.6694V237.942Z" fill="url(#paint4_linear_21_38)"/>
<path d="M105.922 101.87C105.922 77.2561 125.94 57.3022 150.635 57.3022C175.329 57.3022 195.348 77.2561 195.348 101.87C195.348 126.485 175.329 146.439 150.635 146.439H105.922L105.922 101.87Z" fill="url(#paint5_linear_21_38)"/>
<path d="M460.417 253.52V78.7136H493.544V253.52H460.417ZM529.531 253.52V119.485H555.522L558.071 137.322H559.854C562.912 133.245 566.48 129.677 570.557 126.62C574.804 123.392 579.56 120.929 584.827 119.23C590.263 117.361 596.208 116.427 602.664 116.427C611.158 116.427 618.633 117.956 625.088 121.014C631.713 124.071 636.895 128.998 640.632 135.793C644.369 142.588 646.238 151.677 646.238 163.059V253.52H614.895V168.665C614.895 163.908 614.301 160.001 613.111 156.943C612.092 153.715 610.478 151.167 608.27 149.299C606.231 147.26 603.683 145.816 600.625 144.967C597.567 144.117 594.17 143.692 590.433 143.692C584.827 143.692 579.73 145.052 575.143 147.77C570.727 150.488 567.159 154.225 564.441 158.982C561.893 163.738 560.619 169.259 560.619 175.545V253.52H529.531ZM730.579 256.577C720.896 256.577 712.402 255.558 705.097 253.52C697.792 251.311 691.677 248.338 686.75 244.601C681.824 240.864 678.086 236.532 675.538 231.605C673.16 226.509 671.971 220.988 671.971 215.042C671.971 214.192 671.971 213.428 671.971 212.748C672.141 212.069 672.225 211.559 672.225 211.22H702.804C702.804 211.559 702.804 211.899 702.804 212.239C702.804 212.579 702.804 212.918 702.804 213.258C702.974 217.845 704.418 221.582 707.136 224.47C709.854 227.188 713.421 229.142 717.838 230.331C722.255 231.52 726.927 232.115 731.853 232.115C736.27 232.115 740.432 231.69 744.339 230.841C748.416 229.821 751.729 228.292 754.277 226.254C756.995 224.045 758.354 221.242 758.354 217.845C758.354 213.428 756.656 210.03 753.258 207.652C749.86 205.274 745.359 203.32 739.753 201.791C734.316 200.262 728.456 198.648 722.17 196.95C716.564 195.421 710.958 193.722 705.352 191.853C699.746 189.985 694.65 187.606 690.063 184.718C685.646 181.83 681.994 178.093 679.106 173.506C676.388 168.92 675.029 163.229 675.029 156.433C675.029 149.808 676.472 144.032 679.36 139.106C682.248 134.179 686.241 130.102 691.337 126.874C696.433 123.477 702.464 120.929 709.429 119.23C716.394 117.531 723.954 116.682 732.108 116.682C740.092 116.682 747.312 117.531 753.768 119.23C760.393 120.929 766.084 123.392 770.841 126.62C775.767 129.677 779.504 133.5 782.053 138.086C784.771 142.503 786.13 147.43 786.13 152.866C786.13 154.055 786.045 155.244 785.875 156.433C785.875 157.623 785.875 158.302 785.875 158.472H755.551V156.688C755.551 153.461 754.532 150.742 752.494 148.534C750.625 146.156 747.822 144.287 744.084 142.928C740.517 141.569 736.015 140.889 730.579 140.889C726.502 140.889 722.935 141.229 719.877 141.909C716.819 142.588 714.271 143.523 712.232 144.712C710.363 145.901 708.919 147.26 707.9 148.789C706.881 150.318 706.371 152.017 706.371 153.885C706.371 157.113 707.645 159.661 710.194 161.53C712.742 163.398 716.139 165.012 720.386 166.371C724.803 167.73 729.56 169.174 734.656 170.703C740.772 172.402 747.057 174.186 753.513 176.055C759.968 177.753 765.914 179.962 771.35 182.68C776.956 185.398 781.458 189.22 784.856 194.147C788.253 199.073 789.952 205.614 789.952 213.768C789.952 221.582 788.423 228.292 785.365 233.898C782.477 239.335 778.315 243.751 772.879 247.149C767.613 250.377 761.327 252.755 754.022 254.284C746.888 255.813 739.073 256.577 730.579 256.577ZM816.202 98.8443V69.2853H847.29V98.8443H816.202ZM816.202 253.52V119.485H847.29V253.52H816.202ZM915.825 256.577C907.501 256.577 900.96 254.964 896.204 251.736C891.447 248.338 888.049 244.091 886.011 238.995C884.142 233.729 883.208 228.377 883.208 222.941V144.967H867.154V119.485H883.972L889.578 82.0262H914.296V119.485H937.484V144.967H914.296V219.883C914.296 223.451 915.23 226.254 917.099 228.292C918.967 230.161 921.77 231.095 925.508 231.095H937.484V252.5C935.785 253.18 933.662 253.774 931.114 254.284C928.735 254.964 926.187 255.473 923.469 255.813C920.751 256.323 918.203 256.577 915.825 256.577ZM1018.12 256.577C1003.85 256.577 991.961 254.114 982.448 249.188C972.935 244.091 965.8 236.362 961.043 225.999C956.286 215.636 953.908 202.471 953.908 186.502C953.908 170.364 956.286 157.198 961.043 147.005C965.8 136.642 972.935 128.998 982.448 124.071C991.961 118.975 1003.85 116.427 1018.12 116.427C1031.03 116.427 1041.82 118.89 1050.48 123.817C1059.32 128.573 1065.94 135.963 1070.36 145.986C1074.78 156.009 1076.99 169.005 1076.99 184.973V194.147H985.761C986.1 202.471 987.374 209.521 989.583 215.297C991.791 220.903 995.189 225.15 999.776 228.038C1004.53 230.756 1010.73 232.115 1018.38 232.115C1022.28 232.115 1025.94 231.605 1029.33 230.586C1032.73 229.567 1035.71 228.038 1038.25 225.999C1040.8 223.791 1042.76 221.073 1044.11 217.845C1045.64 214.617 1046.41 210.88 1046.41 206.633H1076.99C1076.99 215.127 1075.46 222.517 1072.4 228.802C1069.51 235.088 1065.35 240.269 1059.91 244.346C1054.65 248.423 1048.45 251.481 1041.31 253.52C1034.18 255.558 1026.45 256.577 1018.12 256.577ZM986.27 172.232H1044.62C1044.62 166.626 1043.94 161.87 1042.59 157.962C1041.4 154.055 1039.61 150.827 1037.23 148.279C1035.03 145.731 1032.31 143.947 1029.08 142.928C1025.85 141.739 1022.2 141.144 1018.12 141.144C1011.5 141.144 1005.89 142.249 1001.3 144.457C996.888 146.665 993.49 150.063 991.112 154.65C988.733 159.236 987.12 165.097 986.27 172.232Z" fill="#435860"/>
<path d="M460.913 328.876V285.904H482.462C485.636 285.904 488.246 286.468 490.292 287.596C492.38 288.723 493.946 290.31 494.99 292.357C496.034 294.403 496.556 296.846 496.556 299.686C496.556 302.484 496.013 304.927 494.927 307.015C493.842 309.103 492.213 310.731 490.041 311.901C487.912 313.028 485.239 313.592 482.023 313.592H469.056V328.876H460.913ZM469.056 306.639H481.773C483.861 306.639 485.469 306.033 486.596 304.822C487.765 303.569 488.35 301.857 488.35 299.686C488.35 298.224 488.099 296.992 487.598 295.99C487.097 294.987 486.366 294.215 485.406 293.672C484.445 293.129 483.234 292.858 481.773 292.858H469.056V306.639ZM545.474 328.876V285.904H553.618V328.876H545.474ZM601.678 328.876L617.15 306.326L603.118 285.904H613.078L622.6 300.249H622.913L632.435 285.904H641.768L627.737 306.263L643.272 328.876H633.374L622.349 312.276H621.974L611.074 328.876H601.678ZM691.289 328.876V285.904H724.802V292.858H699.433V303.444H722.046V310.397H699.433V321.923H725.178V328.876H691.289ZM775.973 328.876V285.904H784.116V321.798H805.665V328.876H775.973ZM870.33 329.628C867.95 329.628 865.674 329.378 863.502 328.876C861.331 328.334 859.41 327.519 857.739 326.433C856.069 325.306 854.753 323.928 853.793 322.299C852.832 320.629 852.352 318.666 852.352 316.411C852.352 316.16 852.352 315.91 852.352 315.659C852.394 315.409 852.415 315.221 852.415 315.095H860.621C860.621 315.179 860.6 315.346 860.558 315.596C860.558 315.805 860.558 315.993 860.558 316.16C860.558 317.538 860.955 318.729 861.748 319.731C862.542 320.691 863.69 321.443 865.194 321.986C866.697 322.487 868.472 322.738 870.518 322.738C871.896 322.738 873.107 322.654 874.151 322.487C875.237 322.32 876.156 322.09 876.908 321.798C877.701 321.464 878.348 321.088 878.849 320.67C879.351 320.211 879.706 319.71 879.914 319.167C880.165 318.624 880.29 318.039 880.29 317.413C880.29 316.202 879.914 315.2 879.163 314.406C878.411 313.613 877.388 312.945 876.093 312.402C874.84 311.859 873.4 311.379 871.771 310.961C870.184 310.502 868.535 310.042 866.822 309.583C865.152 309.124 863.502 308.581 861.874 307.954C860.287 307.286 858.846 306.493 857.551 305.574C856.299 304.655 855.296 303.507 854.545 302.129C853.793 300.709 853.417 299.017 853.417 297.055C853.417 295.05 853.835 293.296 854.67 291.793C855.547 290.289 856.758 289.057 858.303 288.097C859.89 287.095 861.727 286.364 863.816 285.904C865.904 285.403 868.18 285.153 870.643 285.153C872.94 285.153 875.091 285.403 877.096 285.904C879.142 286.364 880.938 287.116 882.483 288.16C884.028 289.162 885.239 290.456 886.116 292.043C886.993 293.588 887.431 295.447 887.431 297.618V298.37H879.351V297.744C879.351 296.533 878.975 295.509 878.223 294.674C877.513 293.839 876.49 293.192 875.154 292.732C873.859 292.273 872.335 292.043 870.581 292.043C868.702 292.043 867.094 292.231 865.757 292.607C864.421 292.941 863.398 293.463 862.688 294.173C861.978 294.841 861.623 295.676 861.623 296.679C861.623 297.723 861.999 298.6 862.751 299.31C863.502 300.02 864.505 300.625 865.757 301.126C867.052 301.627 868.493 302.087 870.08 302.504C871.708 302.922 873.358 303.381 875.028 303.883C876.741 304.342 878.39 304.885 879.977 305.511C881.606 306.138 883.046 306.931 884.299 307.892C885.594 308.81 886.617 309.959 887.369 311.337C888.12 312.715 888.496 314.365 888.496 316.286C888.496 319.501 887.703 322.09 886.116 324.053C884.571 326.016 882.42 327.436 879.664 328.313C876.949 329.19 873.838 329.628 870.33 329.628Z" fill="#435860"/>
<rect x="815.822" y="67.96" width="31.5742" height="31.5742" fill="#447AF1"/>
<defs>
<filter id="filter0_f_21_38" x="-16.1487" y="-16.1487" width="422.993" height="422.992" filterUnits="userSpaceOnUse" color-interpolation-filters="sRGB">
<feFlood flood-opacity="0" result="BackgroundImageFix"/>
<feBlend mode="normal" in="SourceGraphic" in2="BackgroundImageFix" result="shape"/>
<feGaussianBlur stdDeviation="8.07436" result="effect1_foregroundBlur_21_38"/>
</filter>
<radialGradient id="paint0_radial_21_38" cx="0" cy="0" r="1" gradientUnits="userSpaceOnUse" gradientTransform="translate(138.046 92.8986) rotate(79.1083) scale(303.259)">
<stop stop-color="#4F5FF8"/>
<stop offset="1" stop-color="#17D3DA"/>
</radialGradient>
<radialGradient id="paint1_radial_21_38" cx="0" cy="0" r="1" gradientUnits="userSpaceOnUse" gradientTransform="translate(138.046 92.8986) rotate(79.1083) scale(303.259)">
<stop stop-color="#4F5FF8"/>
<stop offset="1" stop-color="#17D3DA"/>
</radialGradient>
<linearGradient id="paint2_linear_21_38" x1="359.439" y1="353.362" x2="39.0695" y2="32.992" gradientUnits="userSpaceOnUse">
<stop stop-color="#4673F3"/>
<stop offset="1" stop-color="white"/>
</linearGradient>
<linearGradient id="paint3_linear_21_38" x1="177.115" y1="189.27" x2="114.604" y2="316.029" gradientUnits="userSpaceOnUse">
<stop stop-color="white"/>
<stop offset="1" stop-color="white" stop-opacity="0.5"/>
</linearGradient>
<linearGradient id="paint4_linear_21_38" x1="256.99" y1="71.1936" x2="201.425" y2="237.89" gradientUnits="userSpaceOnUse">
<stop stop-color="white"/>
<stop offset="1" stop-color="white" stop-opacity="0.5"/>
</linearGradient>
<linearGradient id="paint5_linear_21_38" x1="184.929" y1="72.93" x2="105.922" y2="145.86" gradientUnits="userSpaceOnUse">
<stop stop-color="white"/>
<stop offset="1" stop-color="white" stop-opacity="0.5"/>
</linearGradient>
</defs>
</svg>
