<svg width="1138" height="371" viewBox="0 0 1138 371" fill="none" xmlns="http://www.w3.org/2000/svg">
<path d="M152.235 19.1269C172.735 7.29112 197.992 7.29114 218.492 19.1269L312.764 73.5549C333.265 85.3907 345.893 107.264 345.893 130.936V239.792C345.893 263.463 333.264 285.336 312.764 297.172L218.492 351.6C197.992 363.436 172.735 363.436 152.235 351.6L57.9628 297.172C37.4626 285.336 24.834 263.463 24.834 239.792V130.936C24.834 107.264 37.4626 85.3906 57.9628 73.5549L152.235 19.1269Z" fill="#0000FF"/>
<path d="M162.489 334.443C202.237 334.443 240.356 318.737 268.462 290.779C296.568 262.821 312.357 224.902 312.357 185.364C312.357 145.825 296.568 107.906 268.462 79.9486C240.356 51.9907 202.237 36.2842 162.489 36.2842L162.489 79.304C190.767 79.304 217.886 90.4781 237.881 110.368C257.877 130.258 269.11 157.235 269.11 185.364C269.11 213.493 257.877 240.469 237.881 260.359C217.886 280.25 190.767 291.424 162.489 291.424L162.489 334.443Z" fill="url(#paint0_linear_21_32)"/>
<path d="M484.441 106.329C500.993 106.329 515.458 109.61 527.835 116.171C540.212 122.732 549.756 131.978 556.466 143.907C563.326 155.688 566.756 169.333 566.756 184.841C566.756 200.201 563.326 213.845 556.466 225.775C549.756 237.705 540.137 246.95 527.611 253.512C515.234 260.073 500.844 263.354 484.441 263.354H425.612V106.329H484.441ZM481.98 230.249C496.445 230.249 507.704 226.297 515.756 218.393C523.809 210.49 527.835 199.306 527.835 184.841C527.835 170.376 523.809 159.118 515.756 151.065C507.704 143.013 496.445 138.986 481.98 138.986H463.862V230.249H481.98ZM580.526 200.723C580.526 187.898 582.912 176.64 587.684 166.947C592.605 157.254 599.241 149.798 607.591 144.579C615.942 139.359 625.262 136.75 635.552 136.75C644.35 136.75 652.03 138.539 658.591 142.118C665.301 145.697 670.446 150.394 674.025 156.21V138.539H712.275V263.354H674.025V245.683C670.297 251.498 665.078 256.196 658.367 259.775C651.806 263.354 644.126 265.143 635.328 265.143C625.188 265.143 615.942 262.533 607.591 257.314C599.241 251.946 592.605 244.415 587.684 234.722C582.912 224.88 580.526 213.547 580.526 200.723ZM674.025 200.946C674.025 191.403 671.341 183.872 665.972 178.354C660.753 172.837 654.341 170.078 646.736 170.078C639.131 170.078 632.644 172.837 627.275 178.354C622.056 183.723 619.447 191.179 619.447 200.723C619.447 210.266 622.056 217.872 627.275 223.538C632.644 229.056 639.131 231.814 646.736 231.814C654.341 231.814 660.753 229.056 665.972 223.538C671.341 218.021 674.025 210.49 674.025 200.946ZM919.115 138.539L885.34 263.354H843.064L823.38 182.381L803.025 263.354H760.972L726.973 138.539H765.222L782.893 227.788L803.919 138.539H844.406L865.656 227.341L883.103 138.539H919.115ZM971.952 97.829V263.354H933.702V97.829H971.952ZM992.065 200.723C992.065 187.898 994.451 176.64 999.223 166.947C1004.14 157.254 1010.78 149.798 1019.13 144.579C1027.48 139.359 1036.8 136.75 1047.09 136.75C1055.89 136.75 1063.57 138.539 1070.13 142.118C1076.84 145.697 1081.99 150.394 1085.56 156.21V138.539H1123.81V263.354H1085.56V245.683C1081.84 251.498 1076.62 256.196 1069.91 259.775C1063.35 263.354 1055.67 265.143 1046.87 265.143C1036.73 265.143 1027.48 262.533 1019.13 257.314C1010.78 251.946 1004.14 244.415 999.223 234.722C994.451 224.88 992.065 213.547 992.065 200.723ZM1085.56 200.946C1085.56 191.403 1082.88 183.872 1077.51 178.354C1072.29 172.837 1065.88 170.078 1058.28 170.078C1050.67 170.078 1044.18 172.837 1038.81 178.354C1033.6 183.723 1030.99 191.179 1030.99 200.723C1030.99 210.266 1033.6 217.872 1038.81 223.538C1044.18 229.056 1050.67 231.814 1058.28 231.814C1065.88 231.814 1072.29 229.056 1077.51 223.538C1082.88 218.021 1085.56 210.49 1085.56 200.946Z" fill="black"/>
<defs>
<linearGradient id="paint0_linear_21_32" x1="268.43" y1="185.364" x2="162.489" y2="185.364" gradientUnits="userSpaceOnUse">
<stop stop-color="white"/>
<stop offset="1" stop-color="#0000FF"/>
</linearGradient>
</defs>
</svg>
