<svg width="522" height="296" viewBox="0 0 522 296" fill="none" xmlns="http://www.w3.org/2000/svg">
<path d="M46.25 135.103C42.2063 135.103 38.9208 134.115 36.3935 132.139C33.8661 130.117 31.8443 127.061 30.3279 122.972V134H5.23845V12.6885H30.3279V41.6378C31.8443 37.8239 33.9351 34.86 36.6002 32.7462C39.3114 30.5865 43.1713 29.5067 48.18 29.5067C54.9348 29.5067 59.6908 31.9651 62.4479 36.8819C65.2509 41.7986 66.6524 48.2318 66.6524 56.1814V107.05C66.6524 112.334 65.9172 117.113 64.4467 121.386C63.0223 125.614 60.7936 128.968 57.7608 131.45C54.774 133.885 50.9371 135.103 46.25 135.103ZM36.0488 115.872C38.668 115.872 40.2534 114.586 40.8048 112.012C41.3562 109.439 41.6319 106.268 41.6319 102.5V62.1091C41.6319 58.2952 41.3562 55.1245 40.8048 52.5972C40.2534 50.0239 38.691 48.7373 36.1178 48.7373C33.4526 48.7373 31.8213 50.0469 31.2239 52.6661C30.6266 55.2394 30.3279 58.3871 30.3279 62.1091V102.5C30.3279 106.222 30.6266 109.393 31.2239 112.012C31.8213 114.586 33.4296 115.872 36.0488 115.872ZM94.6368 135.103C88.8929 135.103 84.5045 133.77 81.4717 131.105C78.4849 128.44 76.4401 124.787 75.3372 120.146C74.2344 115.505 73.683 110.243 73.683 104.361C73.683 98.0661 74.3033 92.9195 75.544 88.9217C76.7847 84.878 78.8984 81.5695 81.8853 78.9963C84.9181 76.423 89.0767 74.2403 94.3611 72.4482L109.663 67.2097V56.595C109.663 51.0349 107.848 48.2548 104.218 48.2548C100.909 48.2548 99.2549 50.5064 99.2549 55.0097V61.2131H75.2683C75.2223 60.8455 75.1994 60.386 75.1994 59.8345C75.1994 59.2372 75.1994 58.5709 75.1994 57.8357C75.1994 47.5426 77.6118 40.2593 82.4367 35.9858C87.3075 31.6664 95.0044 29.5067 105.527 29.5067C111.041 29.5067 115.981 30.4946 120.347 32.4705C124.712 34.4005 128.158 37.2724 130.686 41.0864C133.259 44.9004 134.546 49.6104 134.546 55.2164V134H110.008V121.731C108.813 126.05 106.837 129.359 104.08 131.656C101.323 133.954 98.175 135.103 94.6368 135.103ZM104.355 115.941C106.377 115.941 107.756 115.091 108.491 113.391C109.226 111.691 109.594 109.853 109.594 107.877V79.0652C106.194 80.4437 103.551 82.1899 101.667 84.3036C99.7833 86.3714 98.8413 89.4272 98.8413 93.4709V106.774C98.8413 112.885 100.679 115.941 104.355 115.941ZM144.057 134V12.6885H169.147V134H144.057ZM197.889 135.103C192.146 135.103 187.757 133.77 184.724 131.105C181.738 128.44 179.693 124.787 178.59 120.146C177.487 115.505 176.936 110.243 176.936 104.361C176.936 98.0661 177.556 92.9195 178.797 88.9217C180.037 84.878 182.151 81.5695 185.138 78.9963C188.171 76.423 192.329 74.2403 197.614 72.4482L212.916 67.2097V56.595C212.916 51.0349 211.1 48.2548 207.47 48.2548C204.162 48.2548 202.508 50.5064 202.508 55.0097V61.2131H178.521C178.475 60.8455 178.452 60.386 178.452 59.8345C178.452 59.2372 178.452 58.5709 178.452 57.8357C178.452 47.5426 180.864 40.2593 185.689 35.9858C190.56 31.6664 198.257 29.5067 208.78 29.5067C214.294 29.5067 219.234 30.4946 223.599 32.4705C227.965 34.4005 231.411 37.2724 233.938 41.0864C236.512 44.9004 237.798 49.6104 237.798 55.2164V134H213.26V121.731C212.065 126.05 210.09 129.359 207.332 131.656C204.575 133.954 201.428 135.103 197.889 135.103ZM207.608 115.941C209.63 115.941 211.009 115.091 211.744 113.391C212.479 111.691 212.847 109.853 212.847 107.877V79.0652C209.446 80.4437 206.804 82.1899 204.92 84.3036C203.036 86.3714 202.094 89.4272 202.094 93.4709V106.774C202.094 112.885 203.932 115.941 207.608 115.941ZM247.31 134V30.6095H271.986V43.7746C272.905 39.8227 274.605 36.4683 277.087 33.7112C279.614 30.9082 283.106 29.5067 287.563 29.5067C294.732 29.5067 299.924 31.7123 303.141 36.1237C306.404 40.535 308.035 46.5776 308.035 54.2515V134H283.704V56.8018C283.704 54.7799 283.29 52.9189 282.463 51.2187C281.636 49.4725 280.211 48.5994 278.189 48.5994C276.305 48.5994 274.904 49.2657 273.985 50.5983C273.112 51.885 272.56 53.5162 272.331 55.4921C272.101 57.4221 271.986 59.3521 271.986 61.282V134H247.31ZM348.84 135.103C337.26 135.103 329.035 132.139 324.164 126.211C319.339 120.284 316.926 111.576 316.926 100.088V68.2436C316.926 59.6048 317.845 52.4134 319.683 46.6695C321.521 40.9256 324.738 36.6291 329.333 33.7801C333.928 30.9312 340.316 29.5067 348.495 29.5067C354.193 29.5067 359.293 30.5176 363.797 32.5394C368.346 34.5613 371.93 37.5252 374.549 41.431C377.169 45.3369 378.478 50.1158 378.478 55.7678V71.5521H353.32V57.0775C353.32 54.688 352.975 52.6891 352.286 51.0808C351.597 49.4266 350.103 48.5994 347.806 48.5994C343.762 48.5994 341.74 51.4714 341.74 57.2153V107.325C341.74 109.439 342.2 111.392 343.119 113.184C344.038 114.93 345.554 115.803 347.668 115.803C349.828 115.803 351.321 114.953 352.148 113.253C353.021 111.507 353.458 109.485 353.458 107.187V89.8178H378.478V107.877C378.478 113.575 377.192 118.468 374.618 122.558C372.091 126.602 368.599 129.704 364.141 131.863C359.684 134.023 354.583 135.103 348.84 135.103ZM416.043 135.103C408.691 135.103 402.832 133.724 398.467 130.967C394.102 128.21 390.977 124.235 389.093 119.043C387.209 113.85 386.267 107.601 386.267 100.295V58.7317C386.267 49.1279 389.024 41.8676 394.538 36.9508C400.052 31.988 407.634 29.5067 417.284 29.5067C437.135 29.5067 447.061 39.2483 447.061 58.7317V66.2448C447.061 75.3431 446.969 81.4546 446.785 84.5793H410.943V104.568C410.943 106.406 411.058 108.221 411.287 110.013C411.517 111.76 412.023 113.207 412.804 114.356C413.631 115.505 414.941 116.079 416.733 116.079C419.306 116.079 420.914 114.976 421.558 112.77C422.201 110.519 422.523 107.601 422.523 104.017V94.0913H447.061V99.9501C447.061 107.67 446.096 114.149 444.166 119.387C442.282 124.58 439.065 128.509 434.516 131.174C430.013 133.793 423.855 135.103 416.043 135.103ZM410.805 72.3103H422.523V58.3871C422.523 54.665 422.063 51.9998 421.144 50.3915C420.225 48.7373 418.846 47.9102 417.008 47.9102C415.032 47.9102 413.493 48.6913 412.39 50.2537C411.333 51.816 410.805 54.5272 410.805 58.3871V72.3103ZM476.355 135.103C471.576 135.103 467.785 134.23 464.982 132.484C462.179 130.737 460.088 128.325 458.709 125.246C457.331 122.168 456.412 118.56 455.952 114.425C455.539 110.289 455.332 105.855 455.332 101.122V56.1814C455.332 48.2318 456.733 41.7986 459.536 36.8819C462.385 31.9651 467.187 29.5067 473.942 29.5067C478.951 29.5067 482.788 30.5865 485.453 32.7462C488.164 34.86 490.255 37.8239 491.725 41.6378V12.6885H516.815V134H491.725V123.041C490.347 126.763 488.509 129.704 486.211 131.863C483.959 134.023 480.674 135.103 476.355 135.103ZM485.798 115.803C488.141 115.803 489.703 114.861 490.485 112.977C491.312 111.093 491.725 107.716 491.725 102.845V59.3521C491.725 56.9166 491.358 54.5272 490.622 52.1836C489.933 49.7942 488.371 48.5994 485.935 48.5994C483.27 48.5994 481.593 49.7252 480.904 51.9769C480.214 54.2285 479.87 56.6869 479.87 59.3521V102.845C479.87 111.484 481.846 115.803 485.798 115.803Z" fill="#0F0E0D"/>
<path d="M46.25 273.258C42.2063 273.258 38.9208 272.27 36.3935 270.294C33.8661 268.272 31.8443 265.217 30.3279 261.127V272.155H5.23845V150.844H30.3279V179.793C31.8443 175.979 33.9351 173.015 36.6002 170.902C39.3114 168.742 43.1713 167.662 48.18 167.662C54.9348 167.662 59.6908 170.12 62.4479 175.037C65.2509 179.954 66.6524 186.387 66.6524 194.337V245.205C66.6524 250.489 65.9172 255.268 64.4467 259.542C63.0223 263.769 60.7936 267.124 57.7608 269.605C54.774 272.04 50.9371 273.258 46.25 273.258ZM36.0488 254.027C38.668 254.027 40.2534 252.741 40.8048 250.168C41.3562 247.594 41.6319 244.424 41.6319 240.656V200.264C41.6319 196.45 41.3562 193.28 40.8048 190.752C40.2534 188.179 38.691 186.893 36.1178 186.893C33.4526 186.893 31.8213 188.202 31.2239 190.821C30.6266 193.395 30.3279 196.542 30.3279 200.264V240.656C30.3279 244.378 30.6266 247.548 31.2239 250.168C31.8213 252.741 33.4296 254.027 36.0488 254.027ZM75.6819 162.423V141.883H100.358V162.423H75.6819ZM75.6819 272.155V168.765H100.358V272.155H75.6819ZM131.375 273.258C124.712 273.258 120.209 271.857 117.865 269.054C115.568 266.205 114.419 261.862 114.419 256.026V191.58H107.457V172.763H114.419V150.844H138.405V172.763H145.367V191.58H138.405V250.236C138.405 251.937 138.681 253.131 139.233 253.821C139.784 254.51 140.841 254.855 142.403 254.855C143.506 254.855 144.494 254.763 145.367 254.579V271.397C144.816 271.581 143.092 271.926 140.198 272.431C137.303 272.982 134.362 273.258 131.375 273.258ZM280.878 273.258C260.475 273.258 250.274 262.919 250.274 242.241V234.039H275.088V246.17C275.088 248.513 275.547 250.351 276.466 251.684C277.385 253.017 278.856 253.683 280.878 253.683C284.462 253.683 286.254 250.995 286.254 245.618C286.254 241.115 285.312 237.761 283.428 235.555C281.544 233.303 279.246 231.144 276.535 229.076L263.37 218.944C259.234 215.727 256.087 212.327 253.927 208.742C251.767 205.158 250.688 200.173 250.688 193.785C250.688 187.858 252.089 182.964 254.892 179.104C257.741 175.244 261.486 172.372 266.127 170.488C270.814 168.604 275.869 167.662 281.291 167.662C301.326 167.662 311.343 177.656 311.343 197.645V199.575H285.84V195.646C285.84 193.578 285.473 191.58 284.737 189.65C284.048 187.72 282.67 186.755 280.602 186.755C277.11 186.755 275.363 188.593 275.363 192.269C275.363 195.991 276.834 198.909 279.775 201.023L295.077 212.189C299.855 215.635 303.853 219.725 307.07 224.458C310.332 229.191 311.964 235.486 311.964 243.344C311.964 253.085 309.184 260.507 303.623 265.607C298.109 270.708 290.527 273.258 280.878 273.258ZM323.199 239.139L318.374 150.844H343.05L338.225 239.139H323.199ZM318.374 272.086V251.546H343.05V272.086H318.374Z" fill="#56BC6C"/>
<path d="M224.976 266.456C218.831 270.493 213.177 272.557 208.015 272.649C202.852 272.742 198.058 271.135 193.633 267.829C189.208 264.524 184.989 259.818 180.978 253.711L158.159 218.973C152.886 210.946 151.204 203.364 153.114 196.227C154.998 189.052 159.972 182.815 168.038 177.517C184.629 166.618 198.274 169.311 208.97 185.595L213.095 191.875C218.091 199.479 221.369 204.638 222.931 207.35L192.974 227.029L203.948 243.735C204.957 245.272 206.05 246.726 207.226 248.097C208.377 249.431 209.594 250.363 210.877 250.894C212.199 251.4 213.609 251.161 215.107 250.177C217.258 248.765 217.997 246.96 217.323 244.763C216.625 242.528 215.292 239.913 213.324 236.917L207.875 228.621L228.384 215.149L231.6 220.046C235.839 226.498 238.589 232.443 239.852 237.881C241.128 243.256 240.597 248.305 238.258 253.03C235.932 257.692 231.505 262.167 224.976 266.456ZM186.123 216.85L195.916 210.416L188.272 198.779C186.229 195.668 184.381 193.693 182.73 192.853C181.054 191.975 179.448 192.041 177.911 193.05C176.26 194.135 175.402 195.633 175.338 197.544C175.313 199.43 176.359 201.986 178.479 205.213L186.123 216.85Z" fill="#56BC6C"/>
</svg>
