<svg width="608" height="202" viewBox="0 0 608 202" fill="none" xmlns="http://www.w3.org/2000/svg">
<path d="M190.298 166.291L68.3134 201.21H19.6113L129.88 166.291H190.298Z" fill="#BEA787"/>
<path d="M68.0863 0.195312L6.51953 201.436H68.0863L128.734 0.195312H68.0863Z" fill="#C0B398"/>
<path d="M128.728 0.195312L189.835 166.288H129.647L101.85 88.8699L128.728 0.195312Z" fill="#907F6D"/>
<path d="M85.7773 142.629L101.858 88.8729L190.662 50.8652L175.275 101.532L85.7773 142.629Z" fill="#B9841E"/>
<path d="M31.3301 120.346L35.4652 106.563L117.248 38.334L102.086 88.1847L31.3301 120.346Z" fill="white"/>
<path d="M0 122.928L16.165 68.8908L121.38 24.7832L106.218 74.6339L0 122.928Z" fill="#B9841E"/>
<path d="M153.312 66.8198L129.079 4.90625L70.2363 199.086L188.509 165.546L167.326 105.184" stroke="#6E6755" stroke-width="3.21618"/>
<line x1="234.162" y1="13.3159" x2="234.162" y2="188.316" stroke="#6E6755" stroke-width="3"/>
<path d="M283.503 185.375V165.62H280.106V163.455H289.298V165.62H285.915V185.375H283.503ZM296.055 185.375V163.455H300.357C301.809 163.455 302.864 163.747 303.522 164.332C304.179 164.916 304.526 165.88 304.563 167.222C304.599 168.044 304.622 168.789 304.631 169.455C304.64 170.122 304.64 170.766 304.631 171.387C304.622 172.008 304.599 172.661 304.563 173.346C304.526 174.241 304.362 174.963 304.07 175.511C303.777 176.059 303.321 176.461 302.7 176.716L304.974 185.375H302.426L300.398 177.114H298.466V185.375H296.055ZM298.466 174.949H300.343C300.983 174.949 301.439 174.835 301.713 174.607C301.987 174.369 302.133 173.981 302.152 173.442C302.179 172.666 302.197 171.944 302.206 171.278C302.225 170.611 302.229 169.949 302.22 169.291C302.22 168.624 302.197 167.903 302.152 167.127C302.124 166.579 301.974 166.19 301.7 165.962C301.435 165.734 300.987 165.62 300.357 165.62H298.466V174.949ZM311.481 185.375L313.933 163.455H318.728L321.153 185.375H318.687L318.139 179.374H314.509L313.961 185.375H311.481ZM314.728 177.21H317.933L317.495 172.552L316.92 165.62H315.728L315.152 172.552L314.728 177.21ZM328.422 185.375V163.455H332.765C334.299 163.455 335.404 163.756 336.08 164.359C336.756 164.962 337.103 165.958 337.121 167.346C337.148 169.026 337.167 170.625 337.176 172.141C337.185 173.657 337.185 175.173 337.176 176.689C337.167 178.196 337.148 179.79 337.121 181.47C337.103 182.858 336.765 183.858 336.107 184.47C335.45 185.073 334.381 185.375 332.902 185.375H328.422ZM330.833 183.21H332.902C333.55 183.21 334.011 183.091 334.285 182.854C334.559 182.616 334.701 182.224 334.71 181.676C334.746 180.324 334.774 179.059 334.792 177.881C334.81 176.693 334.82 175.538 334.82 174.415C334.82 173.282 334.81 172.122 334.792 170.935C334.774 169.748 334.746 168.478 334.71 167.127C334.701 166.588 334.55 166.204 334.258 165.976C333.966 165.738 333.468 165.62 332.765 165.62H330.833V183.21ZM345.154 185.375V163.455H347.565V185.375H345.154ZM355.758 185.375V163.455H360.484L361.758 170.401L363.553 183.196H364.731L364.402 171.415L364.252 163.455H366.69V185.375H361.786L360.416 177.593L358.923 165.606H357.703L358.005 177.141L358.183 185.375H355.758ZM379.241 185.58C378.173 185.58 377.31 185.443 376.652 185.169C375.995 184.895 375.515 184.466 375.214 183.881C374.912 183.288 374.748 182.516 374.72 181.566C374.693 180.397 374.675 179.219 374.666 178.031C374.657 176.835 374.652 175.639 374.652 174.442C374.652 173.246 374.657 172.054 374.666 170.867C374.675 169.679 374.693 168.506 374.72 167.346C374.748 166.369 374.912 165.578 375.214 164.976C375.524 164.373 376.004 163.935 376.652 163.661C377.31 163.387 378.168 163.25 379.228 163.25C380.789 163.25 381.908 163.56 382.584 164.181C383.269 164.793 383.644 165.811 383.707 167.236C383.735 167.903 383.749 168.551 383.749 169.182C383.749 169.803 383.735 170.451 383.707 171.127H381.296C381.324 170.378 381.337 169.693 381.337 169.072C381.337 168.451 381.324 167.77 381.296 167.031C381.26 166.373 381.1 165.921 380.817 165.674C380.534 165.428 380.004 165.305 379.228 165.305C378.433 165.305 377.89 165.428 377.597 165.674C377.314 165.921 377.159 166.373 377.132 167.031C377.095 168.355 377.068 169.624 377.049 170.839C377.031 172.045 377.022 173.237 377.022 174.415C377.022 175.584 377.031 176.771 377.049 177.977C377.068 179.182 377.095 180.452 377.132 181.785C377.159 182.443 377.314 182.895 377.597 183.141C377.89 183.388 378.438 183.511 379.241 183.511C380.082 183.511 380.648 183.388 380.94 183.141C381.242 182.895 381.41 182.443 381.447 181.785C381.456 181.365 381.461 180.954 381.461 180.552C381.47 180.15 381.47 179.753 381.461 179.36C381.461 178.959 381.456 178.548 381.447 178.127H379.351V175.949H383.803C383.831 177.054 383.84 178.059 383.831 178.963C383.831 179.858 383.817 180.726 383.79 181.566C383.744 183 383.374 184.027 382.68 184.648C381.995 185.269 380.849 185.58 379.241 185.58ZM406.508 185.58C404.937 185.58 403.814 185.256 403.138 184.607C402.462 183.959 402.097 182.922 402.042 181.498C402.024 180.84 402.015 180.283 402.015 179.826C402.015 179.36 402.029 178.931 402.056 178.538C402.093 178.137 402.143 177.707 402.207 177.251C402.28 176.383 402.504 175.666 402.878 175.1C403.252 174.534 403.677 174.017 404.152 173.552C403.686 172.492 403.303 171.442 403.001 170.401C402.7 169.36 402.531 168.378 402.494 167.455C402.412 166.104 402.686 165.062 403.316 164.332C403.956 163.601 404.974 163.236 406.371 163.236C407.824 163.236 408.86 163.587 409.481 164.291C410.111 164.994 410.376 166.012 410.276 167.346C410.221 168.506 409.942 169.588 409.44 170.593C408.938 171.597 408.289 172.52 407.495 173.36C407.431 173.433 407.344 173.524 407.234 173.634C407.134 173.743 407.029 173.862 406.919 173.99C407.266 174.675 407.636 175.36 408.029 176.045C408.422 176.73 408.819 177.397 409.221 178.045C409.212 177.452 409.184 176.844 409.139 176.223C409.093 175.602 409.025 174.963 408.933 174.305L410.947 174.291C411.011 174.849 411.07 175.506 411.125 176.264C411.18 177.022 411.217 177.799 411.235 178.593C411.262 179.388 411.262 180.123 411.235 180.799C411.691 181.42 412.13 182 412.55 182.539C412.97 183.068 413.345 183.534 413.673 183.936L412.057 185.402C411.819 185.11 411.568 184.813 411.303 184.511C411.048 184.201 410.787 183.877 410.522 183.539C410.321 184.005 410.047 184.388 409.7 184.69C409.353 184.991 408.915 185.215 408.385 185.361C407.865 185.507 407.239 185.58 406.508 185.58ZM406.563 183.621C407.148 183.621 407.586 183.548 407.878 183.402C408.18 183.256 408.394 183.018 408.522 182.689C408.65 182.361 408.76 181.922 408.851 181.374C408.221 180.507 407.604 179.602 407.002 178.662C406.399 177.712 405.833 176.753 405.303 175.785C405.129 175.995 404.974 176.228 404.837 176.483C404.7 176.739 404.609 177.036 404.563 177.374C404.517 177.703 404.476 178.05 404.44 178.415C404.412 178.771 404.39 179.201 404.371 179.703C404.362 180.196 404.371 180.813 404.399 181.552C404.435 182.201 404.618 182.708 404.947 183.073C405.275 183.438 405.814 183.621 406.563 183.621ZM405.933 171.99C406.152 171.716 406.426 171.387 406.755 171.004C407.093 170.611 407.394 170.122 407.659 169.538C407.933 168.953 408.088 168.232 408.125 167.373C408.207 166.569 408.12 165.958 407.865 165.537C407.618 165.108 407.12 164.894 406.371 164.894C405.759 164.894 405.321 165.094 405.056 165.496C404.801 165.898 404.677 166.442 404.686 167.127C404.695 167.839 404.81 168.611 405.029 169.442C405.257 170.273 405.559 171.122 405.933 171.99ZM436.615 185.58C435.071 185.58 433.943 185.274 433.231 184.662C432.519 184.041 432.153 183.018 432.135 181.593C432.117 180.287 432.103 179.05 432.094 177.881C432.085 176.703 432.08 175.547 432.08 174.415C432.08 173.282 432.085 172.132 432.094 170.962C432.103 169.793 432.117 168.556 432.135 167.25C432.153 165.852 432.519 164.843 433.231 164.222C433.953 163.592 435.076 163.277 436.601 163.277C438.126 163.277 439.245 163.597 439.958 164.236C440.679 164.866 441.067 165.871 441.122 167.25C441.149 167.707 441.163 168.145 441.163 168.565C441.172 168.985 441.172 169.405 441.163 169.825C441.154 170.246 441.136 170.688 441.108 171.154H438.697C438.716 170.679 438.725 170.227 438.725 169.798C438.734 169.369 438.738 168.939 438.738 168.51C438.738 168.072 438.729 167.62 438.711 167.154C438.693 166.46 438.524 165.98 438.204 165.715C437.884 165.451 437.35 165.318 436.601 165.318C435.871 165.318 435.35 165.451 435.039 165.715C434.729 165.98 434.565 166.46 434.546 167.154C434.519 168.533 434.496 169.812 434.478 170.99C434.459 172.168 434.45 173.314 434.45 174.428C434.45 175.534 434.459 176.675 434.478 177.853C434.496 179.022 434.519 180.301 434.546 181.689C434.565 182.383 434.729 182.867 435.039 183.141C435.359 183.406 435.884 183.539 436.615 183.539C437.4 183.539 437.957 183.406 438.286 183.141C438.615 182.867 438.793 182.383 438.821 181.689C438.839 181.269 438.848 180.863 438.848 180.47C438.848 180.068 438.843 179.625 438.834 179.141C438.834 178.657 438.825 178.086 438.807 177.429H441.218C441.245 178.251 441.264 178.99 441.273 179.648C441.282 180.306 441.268 180.954 441.232 181.593C441.177 183.018 440.789 184.041 440.067 184.662C439.355 185.274 438.204 185.58 436.615 185.58ZM453.293 185.58C451.731 185.58 450.603 185.26 449.909 184.621C449.215 183.982 448.858 182.931 448.84 181.47C448.822 180.128 448.808 178.881 448.799 177.73C448.79 176.57 448.785 175.447 448.785 174.36C448.785 173.264 448.79 172.15 448.799 171.017C448.808 169.876 448.822 168.656 448.84 167.359C448.858 165.889 449.215 164.839 449.909 164.209C450.603 163.569 451.731 163.25 453.293 163.25C454.854 163.25 455.978 163.569 456.663 164.209C457.357 164.839 457.722 165.889 457.759 167.359C457.786 168.665 457.804 169.889 457.813 171.031C457.832 172.163 457.841 173.278 457.841 174.374C457.841 175.461 457.832 176.579 457.813 177.73C457.804 178.881 457.786 180.128 457.759 181.47C457.722 182.931 457.357 183.982 456.663 184.621C455.978 185.26 454.854 185.58 453.293 185.58ZM453.293 183.511C454.051 183.511 454.576 183.374 454.868 183.1C455.169 182.817 455.325 182.306 455.334 181.566C455.379 180.205 455.411 178.949 455.43 177.799C455.448 176.639 455.457 175.515 455.457 174.428C455.457 173.333 455.448 172.205 455.43 171.045C455.411 169.885 455.379 168.624 455.334 167.264C455.325 166.524 455.169 166.012 454.868 165.729C454.576 165.446 454.051 165.305 453.293 165.305C452.544 165.305 452.018 165.446 451.717 165.729C451.425 166.012 451.27 166.524 451.251 167.264C451.215 168.597 451.187 169.839 451.169 170.99C451.151 172.132 451.142 173.25 451.142 174.346C451.142 175.433 451.151 176.561 451.169 177.73C451.187 178.899 451.215 180.178 451.251 181.566C451.27 182.306 451.425 182.817 451.717 183.1C452.018 183.374 452.544 183.511 453.293 183.511ZM465.817 185.375V163.455H470.543L471.817 170.401L473.612 183.196H474.79L474.461 171.415L474.31 163.455H476.749V185.375H471.844L470.474 177.593L468.981 165.606H467.762L468.063 177.141L468.241 185.375H465.817ZM486.889 185.375V165.62H483.491V163.455H492.684V165.62H489.3V185.375H486.889ZM499.441 185.375V163.455H503.742C505.195 163.455 506.249 163.747 506.907 164.332C507.565 164.916 507.912 165.88 507.948 167.222C507.985 168.044 508.008 168.789 508.017 169.455C508.026 170.122 508.026 170.766 508.017 171.387C508.008 172.008 507.985 172.661 507.948 173.346C507.912 174.241 507.747 174.963 507.455 175.511C507.163 176.059 506.706 176.461 506.085 176.716L508.359 185.375H505.811L503.784 177.114H501.852V185.375H499.441ZM501.852 174.949H503.729C504.368 174.949 504.825 174.835 505.099 174.607C505.373 174.369 505.519 173.981 505.537 173.442C505.564 172.666 505.583 171.944 505.592 171.278C505.61 170.611 505.615 169.949 505.606 169.291C505.606 168.624 505.583 167.903 505.537 167.127C505.51 166.579 505.359 166.19 505.085 165.962C504.82 165.734 504.373 165.62 503.742 165.62H501.852V174.949ZM514.866 185.375L517.319 163.455H522.113L524.538 185.375H522.072L521.524 179.374H517.894L517.346 185.375H514.866ZM518.113 177.21H521.319L520.88 172.552L520.305 165.62H519.113L518.538 172.552L518.113 177.21ZM536.016 185.58C534.472 185.58 533.344 185.274 532.632 184.662C531.919 184.041 531.554 183.018 531.536 181.593C531.518 180.287 531.504 179.05 531.495 177.881C531.486 176.703 531.481 175.547 531.481 174.415C531.481 173.282 531.486 172.132 531.495 170.962C531.504 169.793 531.518 168.556 531.536 167.25C531.554 165.852 531.919 164.843 532.632 164.222C533.353 163.592 534.477 163.277 536.002 163.277C537.527 163.277 538.646 163.597 539.358 164.236C540.08 164.866 540.468 165.871 540.523 167.25C540.55 167.707 540.564 168.145 540.564 168.565C540.573 168.985 540.573 169.405 540.564 169.825C540.555 170.246 540.537 170.688 540.509 171.154H538.098C538.116 170.679 538.125 170.227 538.125 169.798C538.134 169.369 538.139 168.939 538.139 168.51C538.139 168.072 538.13 167.62 538.112 167.154C538.093 166.46 537.924 165.98 537.605 165.715C537.285 165.451 536.751 165.318 536.002 165.318C535.271 165.318 534.751 165.451 534.44 165.715C534.13 165.98 533.965 166.46 533.947 167.154C533.92 168.533 533.897 169.812 533.878 170.99C533.86 172.168 533.851 173.314 533.851 174.428C533.851 175.534 533.86 176.675 533.878 177.853C533.897 179.022 533.92 180.301 533.947 181.689C533.965 182.383 534.13 182.867 534.44 183.141C534.76 183.406 535.285 183.539 536.016 183.539C536.801 183.539 537.358 183.406 537.687 183.141C538.016 182.867 538.194 182.383 538.221 181.689C538.24 181.269 538.249 180.863 538.249 180.47C538.249 180.068 538.244 179.625 538.235 179.141C538.235 178.657 538.226 178.086 538.208 177.429H540.619C540.646 178.251 540.664 178.99 540.674 179.648C540.683 180.306 540.669 180.954 540.632 181.593C540.578 183.018 540.189 184.041 539.468 184.662C538.756 185.274 537.605 185.58 536.016 185.58ZM550.204 185.375V165.62H546.806V163.455H555.999V165.62H552.615V185.375H550.204ZM562.756 185.375V163.455H565.167V185.375H562.756ZM573.36 185.375V163.455H578.086L579.361 170.401L581.155 183.196H582.333L582.005 171.415L581.854 163.455H584.292V185.375H579.388L578.018 177.593L576.525 165.606H575.305L575.607 177.141L575.785 185.375H573.36ZM596.843 185.58C595.775 185.58 594.912 185.443 594.254 185.169C593.597 184.895 593.117 184.466 592.816 183.881C592.514 183.288 592.35 182.516 592.323 181.566C592.295 180.397 592.277 179.219 592.268 178.031C592.259 176.835 592.254 175.639 592.254 174.442C592.254 173.246 592.259 172.054 592.268 170.867C592.277 169.679 592.295 168.506 592.323 167.346C592.35 166.369 592.514 165.578 592.816 164.976C593.126 164.373 593.606 163.935 594.254 163.661C594.912 163.387 595.77 163.25 596.83 163.25C598.391 163.25 599.51 163.56 600.186 164.181C600.871 164.793 601.246 165.811 601.31 167.236C601.337 167.903 601.351 168.551 601.351 169.182C601.351 169.803 601.337 170.451 601.31 171.127H598.898C598.926 170.378 598.939 169.693 598.939 169.072C598.939 168.451 598.926 167.77 598.898 167.031C598.862 166.373 598.702 165.921 598.419 165.674C598.136 165.428 597.606 165.305 596.83 165.305C596.035 165.305 595.492 165.428 595.199 165.674C594.916 165.921 594.761 166.373 594.734 167.031C594.697 168.355 594.67 169.624 594.651 170.839C594.633 172.045 594.624 173.237 594.624 174.415C594.624 175.584 594.633 176.771 594.651 177.977C594.67 179.182 594.697 180.452 594.734 181.785C594.761 182.443 594.916 182.895 595.199 183.141C595.492 183.388 596.04 183.511 596.843 183.511C597.684 183.511 598.25 183.388 598.542 183.141C598.844 182.895 599.013 182.443 599.049 181.785C599.058 181.365 599.063 180.954 599.063 180.552C599.072 180.15 599.072 179.753 599.063 179.36C599.063 178.959 599.058 178.548 599.049 178.127H596.953V175.949H601.405C601.433 177.054 601.442 178.059 601.433 178.963C601.433 179.858 601.419 180.726 601.392 181.566C601.346 183 600.976 184.027 600.282 184.648C599.597 185.269 598.451 185.58 596.843 185.58Z" fill="#524C3D"/>
<path d="M275.708 142.386L297.845 19.761C297.961 19.2962 298.252 19.0638 298.716 19.0638H324.601C325.066 19.0638 325.356 19.2962 325.473 19.761L346.738 142.386C346.796 142.967 346.564 143.257 346.041 143.257H326.257C325.676 143.257 325.356 142.967 325.298 142.386L323.381 129.313H299.065L297.148 142.386C297.09 142.967 296.799 143.257 296.276 143.257H276.405C275.94 143.257 275.708 142.967 275.708 142.386ZM312.487 60.113L311.441 53.4894L310.656 60.113L302.638 110.226H319.808L312.487 60.113ZM378.81 143.257H358.591C358.126 143.257 357.894 142.967 357.894 142.386L358.068 19.761C358.068 19.2962 358.358 19.0638 358.939 19.0638H378.81C379.391 19.0638 379.682 19.2962 379.682 19.761L379.508 68.3054H406.264V19.761C406.264 19.2962 406.496 19.0638 406.961 19.0638H426.832C427.413 19.0638 427.703 19.2962 427.703 19.761L428.052 142.386C428.052 142.967 427.761 143.257 427.18 143.257H407.135C406.554 143.257 406.264 142.967 406.264 142.386V89.9195H379.508V142.386C379.508 142.967 379.275 143.257 378.81 143.257ZM463.523 143.257H443.304C442.839 143.257 442.607 142.967 442.607 142.386L442.955 19.761C442.955 19.2962 443.188 19.0638 443.652 19.0638H465.441C465.906 19.0638 466.312 19.2962 466.661 19.761L482.959 43.2924L499.169 19.761C499.518 19.2962 499.954 19.0638 500.476 19.0638H522.352C522.875 19.0638 523.136 19.2962 523.136 19.761L523.485 142.386C523.485 142.967 523.253 143.257 522.788 143.257H502.568C502.103 143.257 501.871 142.967 501.871 142.386L501.697 51.3105L482.959 78.5024L464.395 51.3105L464.221 142.386C464.221 142.967 463.988 143.257 463.523 143.257ZM532.462 142.386L554.599 19.761C554.715 19.2962 555.005 19.0638 555.47 19.0638H581.355C581.82 19.0638 582.11 19.2962 582.226 19.761L603.492 142.386C603.55 142.967 603.317 143.257 602.794 143.257H583.011C582.43 143.257 582.11 142.967 582.052 142.386L580.135 129.313H555.819L553.901 142.386C553.843 142.967 553.553 143.257 553.03 143.257H533.159C532.694 143.257 532.462 142.967 532.462 142.386ZM569.24 60.113L568.195 53.4894L567.41 60.113L559.392 110.226H576.561L569.24 60.113Z" fill="#6E6755"/>
</svg>
