<svg width="1775" height="340" viewBox="0 0 1775 340" fill="none" xmlns="http://www.w3.org/2000/svg">
<mask id="path-1-outside-1_21_24" maskUnits="userSpaceOnUse" x="483.655" y="59.2886" width="1291" height="113" fill="black">
<rect fill="white" x="483.655" y="59.2886" width="1291" height="113"/>
<path d="M501.074 63.6081C515.983 63.6081 528.975 64.1405 540.051 65.2055C551.233 66.1639 560.285 67.5484 567.207 69.3588C574.129 71.1692 579.72 73.4588 583.98 76.2277C588.24 78.89 591.168 81.7122 592.766 84.694C594.363 87.6759 595.162 91.0837 595.162 94.9175C595.162 116.11 570.668 126.706 521.68 126.706C519.444 126.706 515.93 126.706 511.137 126.706C506.984 126.706 503.629 126.706 501.074 126.706V166.642H487.655V63.6081H501.074ZM501.074 113.448C501.074 113.448 502.085 113.501 504.109 113.607C506.132 113.607 508.368 113.661 510.818 113.767C513.267 113.767 516.302 113.767 519.923 113.767C523.65 113.661 527.378 113.554 531.105 113.448C534.832 113.341 538.773 113.128 542.926 112.809C547.079 112.383 550.966 111.903 554.587 111.371C558.315 110.732 561.882 109.933 565.29 108.975C568.698 108.016 571.626 106.898 574.076 105.62C576.525 104.342 578.495 102.798 579.986 100.988C581.477 99.1773 582.223 97.1539 582.223 94.9175C582.223 88.5278 575.141 84.0018 560.977 81.3394C546.92 78.5706 526.952 77.1861 501.074 77.1861V113.448Z"/>
<path d="M726.327 166.642H711.471L708.916 160.891C705.827 154.821 700.822 149.975 693.9 146.354C687.084 142.734 679.203 140.923 670.258 140.923C661.099 140.923 653.219 142.68 646.616 146.195C640.12 149.709 635.328 154.448 632.239 160.412L629.364 166.642H614.508L663.07 63.2886H677.766L726.327 166.642ZM669.938 127.345C679.416 127.345 688.043 129.315 695.817 133.256L670.418 78.9433L645.498 132.297C652.527 128.996 660.673 127.345 669.938 127.345Z"/>
<path d="M766.639 166.642H753.22V63.7678H766.639V166.642Z"/>
<path d="M854.995 108.336C858.828 108.868 862.183 109.348 865.058 109.774C867.934 110.199 871.288 110.838 875.122 111.69C879.062 112.542 882.417 113.501 885.186 114.566C887.955 115.524 890.777 116.802 893.652 118.4C896.634 119.891 899.03 121.594 900.841 123.511C902.758 125.322 904.302 127.558 905.473 130.221C906.645 132.883 907.23 135.758 907.23 138.847C907.23 143.745 905.58 148.165 902.278 152.105C898.977 155.939 894.557 158.974 889.02 161.21C883.588 163.447 877.785 165.151 871.608 166.322C865.431 167.387 859.148 167.92 852.758 167.92C847.327 167.92 841.31 167.227 834.707 165.843C828.105 164.459 821.662 162.222 815.379 159.134C809.095 156.045 804.889 152.531 802.759 148.591L812.024 139.326C813.621 143.905 818.627 147.632 827.04 150.508C835.453 153.277 844.079 154.661 852.918 154.661C859.095 154.661 865.325 153.969 871.608 152.584C877.998 151.2 883.376 149.283 887.742 146.834C892.108 144.384 894.291 141.722 894.291 138.847C894.291 137.143 893.812 135.598 892.854 134.214C891.895 132.83 890.351 131.605 888.221 130.54C886.091 129.475 883.961 128.517 881.831 127.665C879.701 126.813 876.773 126.014 873.046 125.269C869.425 124.417 866.283 123.778 863.621 123.352C861.065 122.819 857.604 122.233 853.237 121.594C851.321 121.275 848.445 120.849 844.611 120.316C840.778 119.784 837.636 119.358 835.187 119.039C832.844 118.613 829.809 118.027 826.081 117.281C822.461 116.429 819.479 115.577 817.136 114.726C814.899 113.874 812.397 112.702 809.628 111.211C806.966 109.614 804.836 107.91 803.238 106.099C801.747 104.289 800.469 102.053 799.404 99.3903C798.339 96.7279 797.807 93.7993 797.807 90.6045C797.807 86.6642 798.978 83.0966 801.321 79.9017C803.664 76.7069 806.646 74.0978 810.267 72.0744C813.888 70.051 818.041 68.3471 822.727 66.9626C827.519 65.5782 832.152 64.6198 836.624 64.0873C841.204 63.5548 845.676 63.2886 850.043 63.2886C859.308 63.2886 869.105 64.9925 879.435 68.4003C889.765 71.7017 896.794 76.0147 900.521 81.3394L891.256 90.6045C888.7 86.3447 883.269 82.9368 874.962 80.381C866.656 77.8251 858.402 76.5472 850.202 76.5472C845.304 76.5472 840.511 76.9199 835.826 77.6654C831.246 78.3043 827.146 79.2628 823.525 80.5407C819.905 81.7122 816.976 83.2031 814.74 85.0135C812.503 86.7174 811.385 88.5811 811.385 90.6045C811.385 92.0954 811.651 93.4798 812.184 94.7578C812.823 95.9292 813.834 97.0474 815.219 98.1123C816.603 99.0708 817.988 99.976 819.372 100.828C820.757 101.573 822.62 102.266 824.963 102.905C827.413 103.544 829.596 104.129 831.513 104.662C833.429 105.088 835.932 105.567 839.02 106.099C842.109 106.632 844.665 107.058 846.688 107.377C848.818 107.59 851.587 107.91 854.995 108.336Z"/>
<path d="M1033.18 63.9275H1046.44V166.642H1033.18V121.754H951.553V166.642H937.974V63.9275H951.553V108.496H1033.18V63.9275Z"/>
<path d="M1184.76 166.642H1169.91L1167.35 160.891C1164.26 154.821 1159.26 149.975 1152.33 146.354C1145.52 142.734 1137.64 140.923 1128.69 140.923C1119.53 140.923 1111.65 142.68 1105.05 146.195C1098.55 149.709 1093.76 154.448 1090.67 160.412L1087.8 166.642H1072.94L1121.5 63.2886H1136.2L1184.76 166.642ZM1128.37 127.345C1137.85 127.345 1146.48 129.315 1154.25 133.256L1128.85 78.9433L1103.93 132.297C1110.96 128.996 1119.11 127.345 1128.37 127.345Z"/>
<path d="M1433.6 108.496H1513.31V121.914H1433.6V166.801H1420.18V63.9275H1513.31V77.1861H1433.6V108.496Z"/>
<path d="M1557.57 153.223H1637.28V166.801H1544.15V63.9275H1557.57V153.223Z"/>
<path d="M1770.75 63.6081L1770.6 99.8695H1770.44C1770.44 104.449 1769.53 108.602 1767.72 112.329C1765.91 115.95 1763.51 119.039 1760.53 121.594C1757.55 124.044 1753.93 126.174 1749.67 127.984C1745.41 129.688 1740.99 131.019 1736.41 131.978C1731.83 132.83 1726.93 133.362 1721.71 133.575V166.322H1708.3V133.415C1703.93 133.096 1699.56 132.457 1695.2 131.498C1690.94 130.54 1686.57 129.156 1682.1 127.345C1677.73 125.535 1673.9 123.405 1670.6 120.955C1667.3 118.4 1664.58 115.258 1662.45 111.531C1660.32 107.803 1659.25 103.757 1659.25 99.3903V63.4483H1672.67V99.3903C1672.67 103.437 1674.75 107.111 1678.9 110.412C1683.16 113.714 1688.43 116.216 1694.72 117.92C1701.11 119.518 1707.82 120.316 1714.85 120.316C1722.09 120.316 1728.85 119.518 1735.13 117.92C1741.52 116.323 1746.74 113.927 1750.79 110.732C1754.94 107.537 1757.07 103.863 1757.18 99.7098V63.6081H1770.75Z"/>
</mask>
<path d="M501.074 63.6081C515.983 63.6081 528.975 64.1405 540.051 65.2055C551.233 66.1639 560.285 67.5484 567.207 69.3588C574.129 71.1692 579.72 73.4588 583.98 76.2277C588.24 78.89 591.168 81.7122 592.766 84.694C594.363 87.6759 595.162 91.0837 595.162 94.9175C595.162 116.11 570.668 126.706 521.68 126.706C519.444 126.706 515.93 126.706 511.137 126.706C506.984 126.706 503.629 126.706 501.074 126.706V166.642H487.655V63.6081H501.074ZM501.074 113.448C501.074 113.448 502.085 113.501 504.109 113.607C506.132 113.607 508.368 113.661 510.818 113.767C513.267 113.767 516.302 113.767 519.923 113.767C523.65 113.661 527.378 113.554 531.105 113.448C534.832 113.341 538.773 113.128 542.926 112.809C547.079 112.383 550.966 111.903 554.587 111.371C558.315 110.732 561.882 109.933 565.29 108.975C568.698 108.016 571.626 106.898 574.076 105.62C576.525 104.342 578.495 102.798 579.986 100.988C581.477 99.1773 582.223 97.1539 582.223 94.9175C582.223 88.5278 575.141 84.0018 560.977 81.3394C546.92 78.5706 526.952 77.1861 501.074 77.1861V113.448Z" fill="black"/>
<path d="M726.327 166.642H711.471L708.916 160.891C705.827 154.821 700.822 149.975 693.9 146.354C687.084 142.734 679.203 140.923 670.258 140.923C661.099 140.923 653.219 142.68 646.616 146.195C640.12 149.709 635.328 154.448 632.239 160.412L629.364 166.642H614.508L663.07 63.2886H677.766L726.327 166.642ZM669.938 127.345C679.416 127.345 688.043 129.315 695.817 133.256L670.418 78.9433L645.498 132.297C652.527 128.996 660.673 127.345 669.938 127.345Z" fill="black"/>
<path d="M766.639 166.642H753.22V63.7678H766.639V166.642Z" fill="black"/>
<path d="M854.995 108.336C858.828 108.868 862.183 109.348 865.058 109.774C867.934 110.199 871.288 110.838 875.122 111.69C879.062 112.542 882.417 113.501 885.186 114.566C887.955 115.524 890.777 116.802 893.652 118.4C896.634 119.891 899.03 121.594 900.841 123.511C902.758 125.322 904.302 127.558 905.473 130.221C906.645 132.883 907.23 135.758 907.23 138.847C907.23 143.745 905.58 148.165 902.278 152.105C898.977 155.939 894.557 158.974 889.02 161.21C883.588 163.447 877.785 165.151 871.608 166.322C865.431 167.387 859.148 167.92 852.758 167.92C847.327 167.92 841.31 167.227 834.707 165.843C828.105 164.459 821.662 162.222 815.379 159.134C809.095 156.045 804.889 152.531 802.759 148.591L812.024 139.326C813.621 143.905 818.627 147.632 827.04 150.508C835.453 153.277 844.079 154.661 852.918 154.661C859.095 154.661 865.325 153.969 871.608 152.584C877.998 151.2 883.376 149.283 887.742 146.834C892.108 144.384 894.291 141.722 894.291 138.847C894.291 137.143 893.812 135.598 892.854 134.214C891.895 132.83 890.351 131.605 888.221 130.54C886.091 129.475 883.961 128.517 881.831 127.665C879.701 126.813 876.773 126.014 873.046 125.269C869.425 124.417 866.283 123.778 863.621 123.352C861.065 122.819 857.604 122.233 853.237 121.594C851.321 121.275 848.445 120.849 844.611 120.316C840.778 119.784 837.636 119.358 835.187 119.039C832.844 118.613 829.809 118.027 826.081 117.281C822.461 116.429 819.479 115.577 817.136 114.726C814.899 113.874 812.397 112.702 809.628 111.211C806.966 109.614 804.836 107.91 803.238 106.099C801.747 104.289 800.469 102.053 799.404 99.3903C798.339 96.7279 797.807 93.7993 797.807 90.6045C797.807 86.6642 798.978 83.0966 801.321 79.9017C803.664 76.7069 806.646 74.0978 810.267 72.0744C813.888 70.051 818.041 68.3471 822.727 66.9626C827.519 65.5782 832.152 64.6198 836.624 64.0873C841.204 63.5548 845.676 63.2886 850.043 63.2886C859.308 63.2886 869.105 64.9925 879.435 68.4003C889.765 71.7017 896.794 76.0147 900.521 81.3394L891.256 90.6045C888.7 86.3447 883.269 82.9368 874.962 80.381C866.656 77.8251 858.402 76.5472 850.202 76.5472C845.304 76.5472 840.511 76.9199 835.826 77.6654C831.246 78.3043 827.146 79.2628 823.525 80.5407C819.905 81.7122 816.976 83.2031 814.74 85.0135C812.503 86.7174 811.385 88.5811 811.385 90.6045C811.385 92.0954 811.651 93.4798 812.184 94.7578C812.823 95.9292 813.834 97.0474 815.219 98.1123C816.603 99.0708 817.988 99.976 819.372 100.828C820.757 101.573 822.62 102.266 824.963 102.905C827.413 103.544 829.596 104.129 831.513 104.662C833.429 105.088 835.932 105.567 839.02 106.099C842.109 106.632 844.665 107.058 846.688 107.377C848.818 107.59 851.587 107.91 854.995 108.336Z" fill="black"/>
<path d="M1033.18 63.9275H1046.44V166.642H1033.18V121.754H951.553V166.642H937.974V63.9275H951.553V108.496H1033.18V63.9275Z" fill="black"/>
<path d="M1184.76 166.642H1169.91L1167.35 160.891C1164.26 154.821 1159.26 149.975 1152.33 146.354C1145.52 142.734 1137.64 140.923 1128.69 140.923C1119.53 140.923 1111.65 142.68 1105.05 146.195C1098.55 149.709 1093.76 154.448 1090.67 160.412L1087.8 166.642H1072.94L1121.5 63.2886H1136.2L1184.76 166.642ZM1128.37 127.345C1137.85 127.345 1146.48 129.315 1154.25 133.256L1128.85 78.9433L1103.93 132.297C1110.96 128.996 1119.11 127.345 1128.37 127.345Z" fill="black"/>
<path d="M1433.6 108.496H1513.31V121.914H1433.6V166.801H1420.18V63.9275H1513.31V77.1861H1433.6V108.496Z" fill="black"/>
<path d="M1557.57 153.223H1637.28V166.801H1544.15V63.9275H1557.57V153.223Z" fill="black"/>
<path d="M1770.75 63.6081L1770.6 99.8695H1770.44C1770.44 104.449 1769.53 108.602 1767.72 112.329C1765.91 115.95 1763.51 119.039 1760.53 121.594C1757.55 124.044 1753.93 126.174 1749.67 127.984C1745.41 129.688 1740.99 131.019 1736.41 131.978C1731.83 132.83 1726.93 133.362 1721.71 133.575V166.322H1708.3V133.415C1703.93 133.096 1699.56 132.457 1695.2 131.498C1690.94 130.54 1686.57 129.156 1682.1 127.345C1677.73 125.535 1673.9 123.405 1670.6 120.955C1667.3 118.4 1664.58 115.258 1662.45 111.531C1660.32 107.803 1659.25 103.757 1659.25 99.3903V63.4483H1672.67V99.3903C1672.67 103.437 1674.75 107.111 1678.9 110.412C1683.16 113.714 1688.43 116.216 1694.72 117.92C1701.11 119.518 1707.82 120.316 1714.85 120.316C1722.09 120.316 1728.85 119.518 1735.13 117.92C1741.52 116.323 1746.74 113.927 1750.79 110.732C1754.94 107.537 1757.07 103.863 1757.18 99.7098V63.6081H1770.75Z" fill="black"/>
<path d="M501.074 63.6081C515.983 63.6081 528.975 64.1405 540.051 65.2055C551.233 66.1639 560.285 67.5484 567.207 69.3588C574.129 71.1692 579.72 73.4588 583.98 76.2277C588.24 78.89 591.168 81.7122 592.766 84.694C594.363 87.6759 595.162 91.0837 595.162 94.9175C595.162 116.11 570.668 126.706 521.68 126.706C519.444 126.706 515.93 126.706 511.137 126.706C506.984 126.706 503.629 126.706 501.074 126.706V166.642H487.655V63.6081H501.074ZM501.074 113.448C501.074 113.448 502.085 113.501 504.109 113.607C506.132 113.607 508.368 113.661 510.818 113.767C513.267 113.767 516.302 113.767 519.923 113.767C523.65 113.661 527.378 113.554 531.105 113.448C534.832 113.341 538.773 113.128 542.926 112.809C547.079 112.383 550.966 111.903 554.587 111.371C558.315 110.732 561.882 109.933 565.29 108.975C568.698 108.016 571.626 106.898 574.076 105.62C576.525 104.342 578.495 102.798 579.986 100.988C581.477 99.1773 582.223 97.1539 582.223 94.9175C582.223 88.5278 575.141 84.0018 560.977 81.3394C546.92 78.5706 526.952 77.1861 501.074 77.1861V113.448Z" stroke="black" stroke-width="7.55508" mask="url(#path-1-outside-1_21_24)"/>
<path d="M726.327 166.642H711.471L708.916 160.891C705.827 154.821 700.822 149.975 693.9 146.354C687.084 142.734 679.203 140.923 670.258 140.923C661.099 140.923 653.219 142.68 646.616 146.195C640.12 149.709 635.328 154.448 632.239 160.412L629.364 166.642H614.508L663.07 63.2886H677.766L726.327 166.642ZM669.938 127.345C679.416 127.345 688.043 129.315 695.817 133.256L670.418 78.9433L645.498 132.297C652.527 128.996 660.673 127.345 669.938 127.345Z" stroke="black" stroke-width="7.55508" mask="url(#path-1-outside-1_21_24)"/>
<path d="M766.639 166.642H753.22V63.7678H766.639V166.642Z" stroke="black" stroke-width="7.55508" mask="url(#path-1-outside-1_21_24)"/>
<path d="M854.995 108.336C858.828 108.868 862.183 109.348 865.058 109.774C867.934 110.199 871.288 110.838 875.122 111.69C879.062 112.542 882.417 113.501 885.186 114.566C887.955 115.524 890.777 116.802 893.652 118.4C896.634 119.891 899.03 121.594 900.841 123.511C902.758 125.322 904.302 127.558 905.473 130.221C906.645 132.883 907.23 135.758 907.23 138.847C907.23 143.745 905.58 148.165 902.278 152.105C898.977 155.939 894.557 158.974 889.02 161.21C883.588 163.447 877.785 165.151 871.608 166.322C865.431 167.387 859.148 167.92 852.758 167.92C847.327 167.92 841.31 167.227 834.707 165.843C828.105 164.459 821.662 162.222 815.379 159.134C809.095 156.045 804.889 152.531 802.759 148.591L812.024 139.326C813.621 143.905 818.627 147.632 827.04 150.508C835.453 153.277 844.079 154.661 852.918 154.661C859.095 154.661 865.325 153.969 871.608 152.584C877.998 151.2 883.376 149.283 887.742 146.834C892.108 144.384 894.291 141.722 894.291 138.847C894.291 137.143 893.812 135.598 892.854 134.214C891.895 132.83 890.351 131.605 888.221 130.54C886.091 129.475 883.961 128.517 881.831 127.665C879.701 126.813 876.773 126.014 873.046 125.269C869.425 124.417 866.283 123.778 863.621 123.352C861.065 122.819 857.604 122.233 853.237 121.594C851.321 121.275 848.445 120.849 844.611 120.316C840.778 119.784 837.636 119.358 835.187 119.039C832.844 118.613 829.809 118.027 826.081 117.281C822.461 116.429 819.479 115.577 817.136 114.726C814.899 113.874 812.397 112.702 809.628 111.211C806.966 109.614 804.836 107.91 803.238 106.099C801.747 104.289 800.469 102.053 799.404 99.3903C798.339 96.7279 797.807 93.7993 797.807 90.6045C797.807 86.6642 798.978 83.0966 801.321 79.9017C803.664 76.7069 806.646 74.0978 810.267 72.0744C813.888 70.051 818.041 68.3471 822.727 66.9626C827.519 65.5782 832.152 64.6198 836.624 64.0873C841.204 63.5548 845.676 63.2886 850.043 63.2886C859.308 63.2886 869.105 64.9925 879.435 68.4003C889.765 71.7017 896.794 76.0147 900.521 81.3394L891.256 90.6045C888.7 86.3447 883.269 82.9368 874.962 80.381C866.656 77.8251 858.402 76.5472 850.202 76.5472C845.304 76.5472 840.511 76.9199 835.826 77.6654C831.246 78.3043 827.146 79.2628 823.525 80.5407C819.905 81.7122 816.976 83.2031 814.74 85.0135C812.503 86.7174 811.385 88.5811 811.385 90.6045C811.385 92.0954 811.651 93.4798 812.184 94.7578C812.823 95.9292 813.834 97.0474 815.219 98.1123C816.603 99.0708 817.988 99.976 819.372 100.828C820.757 101.573 822.62 102.266 824.963 102.905C827.413 103.544 829.596 104.129 831.513 104.662C833.429 105.088 835.932 105.567 839.02 106.099C842.109 106.632 844.665 107.058 846.688 107.377C848.818 107.59 851.587 107.91 854.995 108.336Z" stroke="black" stroke-width="7.55508" mask="url(#path-1-outside-1_21_24)"/>
<path d="M1033.18 63.9275H1046.44V166.642H1033.18V121.754H951.553V166.642H937.974V63.9275H951.553V108.496H1033.18V63.9275Z" stroke="black" stroke-width="7.55508" mask="url(#path-1-outside-1_21_24)"/>
<path d="M1184.76 166.642H1169.91L1167.35 160.891C1164.26 154.821 1159.26 149.975 1152.33 146.354C1145.52 142.734 1137.64 140.923 1128.69 140.923C1119.53 140.923 1111.65 142.68 1105.05 146.195C1098.55 149.709 1093.76 154.448 1090.67 160.412L1087.8 166.642H1072.94L1121.5 63.2886H1136.2L1184.76 166.642ZM1128.37 127.345C1137.85 127.345 1146.48 129.315 1154.25 133.256L1128.85 78.9433L1103.93 132.297C1110.96 128.996 1119.11 127.345 1128.37 127.345Z" stroke="black" stroke-width="7.55508" mask="url(#path-1-outside-1_21_24)"/>
<path d="M1433.6 108.496H1513.31V121.914H1433.6V166.801H1420.18V63.9275H1513.31V77.1861H1433.6V108.496Z" stroke="black" stroke-width="7.55508" mask="url(#path-1-outside-1_21_24)"/>
<path d="M1557.57 153.223H1637.28V166.801H1544.15V63.9275H1557.57V153.223Z" stroke="black" stroke-width="7.55508" mask="url(#path-1-outside-1_21_24)"/>
<path d="M1770.75 63.6081L1770.6 99.8695H1770.44C1770.44 104.449 1769.53 108.602 1767.72 112.329C1765.91 115.95 1763.51 119.039 1760.53 121.594C1757.55 124.044 1753.93 126.174 1749.67 127.984C1745.41 129.688 1740.99 131.019 1736.41 131.978C1731.83 132.83 1726.93 133.362 1721.71 133.575V166.322H1708.3V133.415C1703.93 133.096 1699.56 132.457 1695.2 131.498C1690.94 130.54 1686.57 129.156 1682.1 127.345C1677.73 125.535 1673.9 123.405 1670.6 120.955C1667.3 118.4 1664.58 115.258 1662.45 111.531C1660.32 107.803 1659.25 103.757 1659.25 99.3903V63.4483H1672.67V99.3903C1672.67 103.437 1674.75 107.111 1678.9 110.412C1683.16 113.714 1688.43 116.216 1694.72 117.92C1701.11 119.518 1707.82 120.316 1714.85 120.316C1722.09 120.316 1728.85 119.518 1735.13 117.92C1741.52 116.323 1746.74 113.927 1750.79 110.732C1754.94 107.537 1757.07 103.863 1757.18 99.7098V63.6081H1770.75Z" stroke="black" stroke-width="7.55508" mask="url(#path-1-outside-1_21_24)"/>
<path d="M1228.5 60.8706H1207.72V170.419H1231.02L1266.28 130.126L1301.53 170.419H1328.6L1279.5 115.015L1328.6 60.8706H1299.64L1228.5 142.088V60.8706Z" fill="black"/>
<path d="M528.344 225.846L511.997 257.101V276.042H505.443V257.101L489.024 225.846H496.297L508.684 251.268L521.071 225.846H528.344ZM579.619 276.546C574.962 276.546 570.713 275.465 566.872 273.305C563.031 271.096 559.982 268.048 557.726 264.159C555.517 260.222 554.413 255.805 554.413 250.908C554.413 246.011 555.517 241.618 557.726 237.729C559.982 233.792 563.031 230.743 566.872 228.583C570.713 226.374 574.962 225.27 579.619 225.27C584.324 225.27 588.597 226.374 592.438 228.583C596.278 230.743 599.303 233.768 601.512 237.657C603.72 241.546 604.824 245.963 604.824 250.908C604.824 255.853 603.72 260.27 601.512 264.159C599.303 268.048 596.278 271.096 592.438 273.305C588.597 275.465 584.324 276.546 579.619 276.546ZM579.619 270.856C583.124 270.856 586.268 270.04 589.053 268.408C591.885 266.775 594.094 264.447 595.678 261.422C597.311 258.398 598.127 254.893 598.127 250.908C598.127 246.875 597.311 243.37 595.678 240.394C594.094 237.369 591.909 235.04 589.125 233.408C586.34 231.776 583.172 230.959 579.619 230.959C576.066 230.959 572.897 231.776 570.113 233.408C567.328 235.04 565.119 237.369 563.487 240.394C561.903 243.37 561.111 246.875 561.111 250.908C561.111 254.893 561.903 258.398 563.487 261.422C565.119 264.447 567.328 266.775 570.113 268.408C572.945 270.04 576.114 270.856 579.619 270.856ZM641.49 225.846V257.605C641.49 262.07 642.57 265.383 644.731 267.544C646.939 269.704 649.988 270.784 653.877 270.784C657.718 270.784 660.718 269.704 662.879 267.544C665.087 265.383 666.192 262.07 666.192 257.605V225.846H672.745V257.533C672.745 261.71 671.905 265.239 670.225 268.12C668.544 270.952 666.264 273.065 663.383 274.457C660.55 275.849 657.358 276.546 653.805 276.546C650.252 276.546 647.035 275.849 644.155 274.457C641.322 273.065 639.066 270.952 637.385 268.12C635.753 265.239 634.937 261.71 634.937 257.533V225.846H641.49ZM731.712 276.042L719.758 255.517H711.836V276.042H705.282V225.846H721.486C725.279 225.846 728.472 226.494 731.064 227.791C733.705 229.087 735.673 230.839 736.969 233.048C738.266 235.256 738.914 237.777 738.914 240.61C738.914 244.066 737.906 247.115 735.889 249.756C733.921 252.396 730.944 254.149 726.959 255.013L739.562 276.042H731.712ZM711.836 250.26H721.486C725.039 250.26 727.703 249.396 729.48 247.667C731.256 245.891 732.144 243.538 732.144 240.61C732.144 237.633 731.256 235.328 729.48 233.696C727.751 232.064 725.087 231.247 721.486 231.247H711.836V250.26ZM842.401 225.846V231.175H828.718V276.042H822.165V231.175H808.409V225.846H842.401ZM898.503 276.042L886.548 255.517H878.626V276.042H872.073V225.846H888.276C892.069 225.846 895.262 226.494 897.855 227.791C900.495 229.087 902.464 230.839 903.76 233.048C905.056 235.256 905.704 237.777 905.704 240.61C905.704 244.066 904.696 247.115 902.68 249.756C900.711 252.396 897.735 254.149 893.75 255.013L906.353 276.042H898.503ZM878.626 250.26H888.276C891.829 250.26 894.494 249.396 896.27 247.667C898.047 245.891 898.935 243.538 898.935 240.61C898.935 237.633 898.047 235.328 896.27 233.696C894.542 232.064 891.877 231.247 888.276 231.247H878.626V250.26ZM967.163 264.879H945.27L941.237 276.042H934.323L952.471 226.134H960.033L978.109 276.042H971.196L967.163 264.879ZM965.29 259.55L956.216 234.2L947.142 259.55H965.29ZM1049.1 225.846L1030.16 276.042H1022.6L1003.66 225.846H1010.65L1026.42 269.128L1042.19 225.846H1049.1ZM1084.45 231.175V247.955H1102.74V253.356H1084.45V270.64H1104.9V276.042H1077.9V225.774H1104.9V231.175H1084.45ZM1142.98 270.712H1160.55V276.042H1136.42V225.846H1142.98V270.712ZM1259.59 264.879H1237.69L1233.66 276.042H1226.75L1244.9 226.134H1252.46L1270.53 276.042H1263.62L1259.59 264.879ZM1257.72 259.55L1248.64 234.2L1239.57 259.55H1257.72ZM1315.96 276.546C1312.65 276.546 1309.67 275.969 1307.03 274.817C1304.44 273.617 1302.4 271.985 1300.91 269.92C1299.42 267.808 1298.66 265.383 1298.61 262.647H1305.59C1305.83 264.999 1306.79 266.991 1308.47 268.624C1310.2 270.208 1312.7 271 1315.96 271C1319.08 271 1321.53 270.232 1323.31 268.696C1325.13 267.112 1326.05 265.095 1326.05 262.647C1326.05 260.726 1325.52 259.166 1324.46 257.965C1323.41 256.765 1322.09 255.853 1320.5 255.229C1318.92 254.605 1316.78 253.933 1314.09 253.212C1310.78 252.348 1308.11 251.484 1306.1 250.62C1304.13 249.756 1302.42 248.411 1300.98 246.587C1299.59 244.714 1298.9 242.218 1298.9 239.097C1298.9 236.361 1299.59 233.936 1300.98 231.824C1302.38 229.711 1304.32 228.079 1306.82 226.927C1309.36 225.774 1312.27 225.198 1315.53 225.198C1320.24 225.198 1324.08 226.374 1327.05 228.727C1330.08 231.079 1331.78 234.2 1332.17 238.089H1324.97C1324.73 236.169 1323.72 234.488 1321.94 233.048C1320.16 231.56 1317.81 230.815 1314.88 230.815C1312.15 230.815 1309.91 231.536 1308.19 232.976C1306.46 234.368 1305.59 236.337 1305.59 238.881C1305.59 240.706 1306.1 242.194 1307.11 243.346C1308.16 244.498 1309.43 245.387 1310.92 246.011C1312.46 246.587 1314.6 247.259 1317.33 248.027C1320.64 248.939 1323.31 249.852 1325.33 250.764C1327.34 251.628 1329.07 252.996 1330.51 254.869C1331.95 256.693 1332.67 259.19 1332.67 262.358C1332.67 264.807 1332.02 267.112 1330.73 269.272C1329.43 271.432 1327.51 273.185 1324.97 274.529C1322.42 275.873 1319.42 276.546 1315.96 276.546ZM1379.84 276.546C1376.52 276.546 1373.55 275.969 1370.91 274.817C1368.31 273.617 1366.27 271.985 1364.78 269.92C1363.3 267.808 1362.53 265.383 1362.48 262.647H1369.47C1369.71 264.999 1370.67 266.991 1372.35 268.624C1374.07 270.208 1376.57 271 1379.84 271C1382.96 271 1385.41 270.232 1387.18 268.696C1389.01 267.112 1389.92 265.095 1389.92 262.647C1389.92 260.726 1389.39 259.166 1388.33 257.965C1387.28 256.765 1385.96 255.853 1384.37 255.229C1382.79 254.605 1380.65 253.933 1377.96 253.212C1374.65 252.348 1371.99 251.484 1369.97 250.62C1368 249.756 1366.3 248.411 1364.86 246.587C1363.46 244.714 1362.77 242.218 1362.77 239.097C1362.77 236.361 1363.46 233.936 1364.86 231.824C1366.25 229.711 1368.19 228.079 1370.69 226.927C1373.23 225.774 1376.14 225.198 1379.4 225.198C1384.11 225.198 1387.95 226.374 1390.93 228.727C1393.95 231.079 1395.66 234.2 1396.04 238.089H1388.84C1388.6 236.169 1387.59 234.488 1385.81 233.048C1384.04 231.56 1381.68 230.815 1378.76 230.815C1376.02 230.815 1373.79 231.536 1372.06 232.976C1370.33 234.368 1369.47 236.337 1369.47 238.881C1369.47 240.706 1369.97 242.194 1370.98 243.346C1372.03 244.498 1373.31 245.387 1374.79 246.011C1376.33 246.587 1378.47 247.259 1381.2 248.027C1384.52 248.939 1387.18 249.852 1389.2 250.764C1391.21 251.628 1392.94 252.996 1394.38 254.869C1395.82 256.693 1396.54 259.19 1396.54 262.358C1396.54 264.807 1395.9 267.112 1394.6 269.272C1393.3 271.432 1391.38 273.185 1388.84 274.529C1386.29 275.873 1383.29 276.546 1379.84 276.546ZM1434.35 225.846V276.042H1427.79V225.846H1434.35ZM1483.04 276.546C1479.72 276.546 1476.75 275.969 1474.11 274.817C1471.51 273.617 1469.47 271.985 1467.98 269.92C1466.5 267.808 1465.73 265.383 1465.68 262.647H1472.67C1472.91 264.999 1473.87 266.991 1475.55 268.624C1477.27 270.208 1479.77 271 1483.04 271C1486.16 271 1488.6 270.232 1490.38 268.696C1492.21 267.112 1493.12 265.095 1493.12 262.647C1493.12 260.726 1492.59 259.166 1491.53 257.965C1490.48 256.765 1489.16 255.853 1487.57 255.229C1485.99 254.605 1483.85 253.933 1481.16 253.212C1477.85 252.348 1475.19 251.484 1473.17 250.62C1471.2 249.756 1469.5 248.411 1468.06 246.587C1466.66 244.714 1465.97 242.218 1465.97 239.097C1465.97 236.361 1466.66 233.936 1468.06 231.824C1469.45 229.711 1471.39 228.079 1473.89 226.927C1476.43 225.774 1479.34 225.198 1482.6 225.198C1487.31 225.198 1491.15 226.374 1494.13 228.727C1497.15 231.079 1498.86 234.2 1499.24 238.089H1492.04C1491.8 236.169 1490.79 234.488 1489.01 233.048C1487.24 231.56 1484.88 230.815 1481.96 230.815C1479.22 230.815 1476.99 231.536 1475.26 232.976C1473.53 234.368 1472.67 236.337 1472.67 238.881C1472.67 240.706 1473.17 242.194 1474.18 243.346C1475.23 244.498 1476.51 245.387 1477.99 246.011C1479.53 246.587 1481.67 247.259 1484.4 248.027C1487.72 248.939 1490.38 249.852 1492.4 250.764C1494.41 251.628 1496.14 252.996 1497.58 254.869C1499.02 256.693 1499.74 259.19 1499.74 262.358C1499.74 264.807 1499.1 267.112 1497.8 269.272C1496.5 271.432 1494.58 273.185 1492.04 274.529C1489.49 275.873 1486.49 276.546 1483.04 276.546ZM1561.89 225.846V231.175H1548.2V276.042H1541.65V231.175H1527.9V225.846H1561.89ZM1621.23 264.879H1599.34L1595.3 276.042H1588.39L1606.54 226.134H1614.1L1632.18 276.042H1625.26L1621.23 264.879ZM1619.36 259.55L1610.28 234.2L1601.21 259.55H1619.36ZM1701.15 276.042H1694.6L1668.24 236.073V276.042H1661.69V225.774H1668.24L1694.6 265.671V225.774H1701.15V276.042ZM1764.83 225.846V231.175H1751.14V276.042H1744.59V231.175H1730.83V225.846H1764.83Z" fill="#434343"/>
<path d="M48.391 291.795V0H341.635V95.623L242.535 193.274V95.623H145.463V291.795L97.9411 339.606H0L48.391 291.795Z" fill="#10B0BD"/>
</svg>
